<svg width="64" height="65" viewBox="0 0 64 65" fill="none" xmlns="http://www.w3.org/2000/svg">
<circle cx="32" cy="32.6666" r="32" fill="#E9D8A6"/>
<path d="M30.0887 17.7198V18.9229H19.823C19.2785 18.9229 18.7563 19.1392 18.3713 19.5242C17.9862 19.9093 17.7699 20.4315 17.7699 20.976V28.0823C17.7699 28.6268 17.9862 29.149 18.3713 29.534C18.7563 29.9191 19.2785 30.1354 19.823 30.1354H30.0887V32.1885H20.8496C20.5309 32.1885 20.2165 32.2627 19.9314 32.4053C19.6463 32.5478 19.3984 32.7548 19.2071 33.0098L17.2053 36.6788C17.072 36.8565 17 37.0726 17 37.2948C17 37.5169 17.072 37.733 17.2053 37.9107L19.2071 41.5798C19.3984 41.8347 19.6463 42.0417 19.9314 42.1842C20.2165 42.3268 20.5309 42.401 20.8496 42.401H30.0887V49.6666H34.1949V42.401H44.4605C45.0051 42.401 45.5273 42.1847 45.9123 41.7997C46.2974 41.4146 46.5137 40.8924 46.5137 40.3479V34.2416C46.5137 33.6971 46.2974 33.1749 45.9123 32.7899C45.5273 32.4048 45.0051 32.1885 44.4605 32.1885H34.1949V30.1354H43.434C43.7527 30.1354 44.0671 30.0612 44.3522 29.9186C44.6372 29.7761 44.8852 29.5691 45.0765 29.3141L47.0783 24.6451C47.2115 24.4674 47.2836 24.2512 47.2836 24.0291C47.2836 23.807 47.2115 23.5909 47.0783 23.4132L45.0765 19.7441C44.8852 19.4891 44.6372 19.2822 44.3522 19.1396C44.0671 18.9971 43.7527 18.9229 43.434 18.9229H34.1949V17.7198C34.1949 17.1752 33.9786 16.653 33.5936 16.268C33.2085 15.8829 32.6863 15.6666 32.1418 15.6666C31.5973 15.6666 31.0751 15.8829 30.69 16.268C30.305 16.653 30.0887 17.1752 30.0887 17.7198ZM43.434 20.976L44.9738 24.0291L43.434 28.0823H19.823V20.976H43.434ZM44.4605 34.2416V40.3479H20.8496L19.3098 37.2948L20.8496 34.2416H44.4605Z" fill="white"/>
</svg>
