<svg width="65" height="64" viewBox="0 0 65 64" fill="none" xmlns="http://www.w3.org/2000/svg">
<circle cx="32.5" cy="32" r="32" fill="#0A9396"/>
<path d="M30.5887 17.0531V18.2563H20.323C19.7785 18.2563 19.2563 18.4726 18.8713 18.8576C18.4862 19.2426 18.2699 19.7649 18.2699 20.3094V27.4156C18.2699 27.9602 18.4862 28.4824 18.8713 28.8674C19.2563 29.2524 19.7785 29.4688 20.323 29.4688H30.5887V31.5219H21.3496C21.0309 31.5219 20.7165 31.5961 20.4314 31.7386C20.1463 31.8812 19.8984 32.0881 19.7071 32.3431L17.7053 36.0122C17.572 36.1899 17.5 36.406 17.5 36.6281C17.5 36.8502 17.572 37.0664 17.7053 37.2441L19.7071 40.9131C19.8984 41.1681 20.1463 41.3751 20.4314 41.5176C20.7165 41.6602 21.0309 41.7344 21.3496 41.7344H30.5887V49H34.6949V41.7344H44.9605C45.5051 41.7344 46.0273 41.5181 46.4123 41.133C46.7974 40.748 47.0137 40.2258 47.0137 39.6813V33.575C47.0137 33.0305 46.7974 32.5083 46.4123 32.1232C46.0273 31.7382 45.5051 31.5219 44.9605 31.5219H34.6949V29.4688H43.934C44.2527 29.4688 44.5671 29.3945 44.8522 29.252C45.1372 29.1095 45.3852 28.9025 45.5765 28.6475L47.5783 23.9784C47.7115 23.8007 47.7836 23.5846 47.7836 23.3625C47.7836 23.1404 47.7115 22.9243 47.5783 22.7466L45.5765 19.0775C45.3852 18.8225 45.1372 18.6156 44.8522 18.473C44.5671 18.3305 44.2527 18.2563 43.934 18.2563H34.6949V17.0531C34.6949 16.5086 34.4786 15.9864 34.0936 15.6013C33.7085 15.2163 33.1863 15 32.6418 15C32.0973 15 31.5751 15.2163 31.19 15.6013C30.805 15.9864 30.5887 16.5086 30.5887 17.0531ZM43.934 20.3094L45.4738 23.3625L43.934 27.4156H20.323V20.3094H43.934ZM44.9605 33.575V39.6813H21.3496L19.8098 36.6281L21.3496 33.575H44.9605Z" fill="white"/>
</svg>
