<svg width="66" height="66" viewBox="0 0 66 66" fill="none" xmlns="http://www.w3.org/2000/svg">
<path fill-rule="evenodd" clip-rule="evenodd" d="M4.95176 7.22273C8.97935 2.98728 10.4027 1.79935 12.119 1.2465C13.3068 0.935812 14.5525 0.918543 15.7485 1.19625C17.3229 1.65314 17.7394 2.00038 22.9019 7.13592C27.4375 11.6455 27.8906 12.1344 28.3254 13.0162C29.157 14.5641 29.287 16.3926 28.6824 18.0421C28.2247 19.2985 27.5748 20.1301 24.8241 22.8852L23.03 24.681C22.5591 25.1589 22.4483 25.8845 22.7554 26.4812C26.7418 33.2698 32.3969 38.9312 39.1862 42.9295C39.9679 43.3471 40.9304 43.2124 41.5661 42.596L43.2916 40.9009C44.358 39.8094 45.4875 38.7814 46.6739 37.8214C48.5375 36.6792 50.8594 36.5773 52.8159 37.5519C53.7725 38.0087 54.0883 38.292 58.7658 42.9524C63.5898 47.7544 63.7271 47.9052 64.258 49.0063C65.2571 50.8288 65.2466 53.0366 64.2305 54.85C63.7133 55.8735 63.3975 56.2436 60.6835 59.0124C59.045 60.6846 57.5026 62.2106 57.2555 62.4345C55.0165 64.2849 52.1441 65.1928 49.246 64.9657C43.9443 64.4832 38.8123 62.8471 34.2112 60.1729C24.0195 54.7819 15.343 46.9279 8.97478 37.328C7.58773 35.3185 6.3546 33.2077 5.28586 31.0136C2.41886 26.1079 0.938349 20.5182 1.00197 14.8392C1.22083 11.8683 2.64802 9.11621 4.95176 7.22273Z" stroke="#005F73" stroke-width="2" stroke-linecap="round" stroke-linejoin="round"/>
</svg>
