<svg width="32" height="32" viewBox="0 0 32 32" fill="none" xmlns="http://www.w3.org/2000/svg">
<path fill-rule="evenodd" clip-rule="evenodd" d="M15.75 24C20.1683 24 23.75 20.1944 23.75 15.5C23.75 10.8056 20.1683 7 15.75 7C11.3317 7 7.75 10.8056 7.75 15.5C7.75 20.1944 11.3317 24 15.75 24ZM15.75 21.1667C18.6955 21.1667 21.0833 18.6296 21.0833 15.5C21.0833 12.3704 18.6955 9.83333 15.75 9.83333C12.8045 9.83333 10.4167 12.3704 10.4167 15.5C10.4167 18.6296 12.8045 21.1667 15.75 21.1667Z" fill="#E76F51"/>
<path d="M24 5.5C23.3096 5.5 22.75 6.17158 22.75 7C22.75 7.82842 23.3096 8.5 24 8.5C24.6904 8.5 25.25 7.82842 25.25 7C25.25 6.17158 24.6904 5.5 24 5.5Z" fill="#E76F51"/>
<path fill-rule="evenodd" clip-rule="evenodd" d="M2.1269 4.54181C1.25 6.32117 1.25 8.65048 1.25 13.3091V17.1909C1.25 21.8495 1.25 24.1789 2.1269 25.9581C2.89825 27.5233 4.12904 28.7959 5.6429 29.5933C7.36392 30.5 9.61686 30.5 14.1227 30.5H17.8773C22.3831 30.5 24.6361 30.5 26.357 29.5933C27.8709 28.7959 29.1018 27.5233 29.873 25.9581C30.75 24.1789 30.75 21.8495 30.75 17.1909V13.3091C30.75 8.65048 30.75 6.32117 29.873 4.54181C29.1018 2.97663 27.8709 1.70412 26.357 0.906626C24.6361 0 22.3831 0 17.8773 0H14.1227C9.61686 0 7.36392 0 5.6429 0.906626C4.12904 1.70412 2.89825 2.97663 2.1269 4.54181ZM17.8773 2.77273H14.1227C11.8255 2.77273 10.2639 2.77489 9.05688 2.87684C7.88112 2.97616 7.27985 3.15618 6.86042 3.37714C5.85118 3.90881 5.03065 4.75715 4.51641 5.8006C4.3027 6.23426 4.12858 6.8559 4.03252 8.07152C3.93391 9.31948 3.93182 10.934 3.93182 13.3091V17.1909C3.93182 19.566 3.93391 21.1804 4.03252 22.4285C4.12858 23.6442 4.3027 24.2658 4.51641 24.6995C5.03065 25.7428 5.85118 26.5911 6.86042 27.1228C7.27985 27.3438 7.88112 27.5239 9.05688 27.6232C10.2639 27.7251 11.8255 27.7273 14.1227 27.7273H17.8773C20.1745 27.7273 21.736 27.7251 22.9431 27.6232C24.1189 27.5239 24.7202 27.3438 25.1396 27.1228C26.1488 26.5911 26.9693 25.7428 27.4835 24.6995C27.6973 24.2658 27.8715 23.6442 27.9675 22.4285C28.066 21.1804 28.0682 19.566 28.0682 17.1909V13.3091C28.0682 10.934 28.066 9.31948 27.9675 8.07152C27.8715 6.8559 27.6973 6.23426 27.4835 5.8006C26.9693 4.75715 26.1488 3.90881 25.1396 3.37714C24.7202 3.15618 24.1189 2.97616 22.9431 2.87684C21.736 2.77489 20.1745 2.77273 17.8773 2.77273Z" fill="#E76F51"/>
</svg>
