<svg width="64" height="64" viewBox="0 0 64 64" fill="none" xmlns="http://www.w3.org/2000/svg">
<circle cx="32" cy="32" r="32" fill="#0A9396"/>
<path d="M32 32.6843C36.8222 32.6843 40.7314 28.9494 40.7314 24.3421C40.7314 19.7349 36.8222 16 32 16C27.1777 16 23.2686 19.7349 23.2686 24.3421C23.2686 28.9494 27.1777 32.6843 32 32.6843Z" stroke="white" stroke-width="2" stroke-miterlimit="10"/>
<path d="M16 47.9709L16.5638 44.9864C17.2299 41.5395 19.1386 38.4245 21.9586 36.1825C24.7785 33.9404 28.3314 32.713 32 32.7134C35.673 32.7142 39.2294 33.9458 42.0499 36.1937C44.8704 38.4415 46.7765 41.5633 47.4362 45.0155L48 48" stroke="white" stroke-width="2" stroke-miterlimit="10"/>
</svg>
