<svg width="65" height="64" viewBox="0 0 65 64" fill="none" xmlns="http://www.w3.org/2000/svg">
<circle cx="32.5" cy="32" r="32" fill="#E9D8A6"/>
<path d="M32.5 32.6843C37.3222 32.6843 41.2314 28.9494 41.2314 24.3421C41.2314 19.7349 37.3222 16 32.5 16C27.6777 16 23.7686 19.7349 23.7686 24.3421C23.7686 28.9494 27.6777 32.6843 32.5 32.6843Z" stroke="white" stroke-width="2" stroke-miterlimit="10"/>
<path d="M16.5 47.9709L17.0638 44.9864C17.7299 41.5395 19.6386 38.4245 22.4586 36.1825C25.2785 33.9404 28.8314 32.713 32.5 32.7134C36.173 32.7142 39.7294 33.9458 42.5499 36.1937C45.3704 38.4415 47.2765 41.5633 47.9362 45.0155L48.5 48" stroke="white" stroke-width="2" stroke-miterlimit="10"/>
</svg>
