<svg width="65" height="64" viewBox="0 0 65 64" fill="none" xmlns="http://www.w3.org/2000/svg">
<g clip-path="url(#clip0_177_1072)">
<path fill-rule="evenodd" clip-rule="evenodd" d="M28.452 28.0459C28.0349 28.4629 28.0349 29.1371 28.452 29.5541L34.852 35.9541C35.06 36.1621 35.3331 36.2667 35.6061 36.2667C35.8792 36.2667 36.1523 36.1621 36.3603 35.9541C36.7773 35.5371 36.7773 34.8629 36.3603 34.4459L29.9603 28.0459C29.5432 27.6288 28.8691 27.6288 28.452 28.0459ZM25.6936 32.3125C25.2765 31.8955 24.6024 31.8955 24.1853 32.3125C23.7683 32.7296 23.7683 33.4037 24.1853 33.8208L30.5853 40.2208C30.7933 40.4288 31.0664 40.5333 31.3395 40.5333C31.6125 40.5333 31.8856 40.4288 32.0936 40.2208C32.5107 39.8037 32.5107 39.1296 32.0936 38.7125L25.6936 32.3125ZM21.4269 36.5792C21.0099 36.1621 20.3357 36.1621 19.9187 36.5792C19.5016 36.9963 19.5016 37.6704 19.9187 38.0875L26.3187 44.4875C26.5267 44.6955 26.7997 44.8 27.0728 44.8C27.3459 44.8 27.6189 44.6955 27.8269 44.4875C28.244 44.0704 28.244 43.3963 27.8269 42.9792L21.4269 36.5792ZM41.5645 34.1333L30.2728 22.8416L14.7144 38.4L26.0061 49.6917L41.5645 34.1333ZM31.0269 20.5792L43.8269 33.3792C44.244 33.7963 44.244 34.4704 43.8269 34.8875L26.7603 51.9541C26.5523 52.1621 26.2792 52.2667 26.0061 52.2667C25.7331 52.2667 25.46 52.1621 25.252 51.9541L12.452 39.1541C12.0349 38.7371 12.0349 38.0629 12.452 37.6459L29.5187 20.5792C29.9357 20.1621 30.6099 20.1621 31.0269 20.5792ZM55.8461 39.0133C55.3363 38.7136 54.6835 38.8853 54.3859 39.3941L42.1597 60.2475C41.2765 61.776 39.3149 62.3019 37.8344 61.4485L35.4525 59.9051C34.9597 59.584 34.2984 59.7259 33.9784 60.2197C33.6573 60.7147 33.7981 61.3749 34.2931 61.6949L36.7208 63.2683C37.5581 63.7515 38.4744 63.9808 39.3789 63.9808C41.2232 63.9808 43.0184 63.0261 44.0029 61.3205L56.2259 40.4725C56.5235 39.9648 56.3539 39.312 55.8461 39.0133ZM64.4061 5.33333V22.4C64.4061 25.7003 63.3565 28.1589 60.8936 30.6208L29.2157 62.3435C28.2077 63.3515 26.868 63.9051 25.4429 63.9051C24.0179 63.9051 22.6792 63.3515 21.6733 62.3435L2.06267 42.7339C1.05467 41.7259 0.5 40.3861 0.5 38.9611C0.5 37.536 1.05467 36.1973 2.06267 35.1904L29.7683 7.52213C22.5235 5.8752 18.0275 5.76427 16.7112 6.14933C17.2669 6.71787 18.9981 7.92533 23.1763 9.57227C23.7245 9.7888 23.9933 10.4075 23.7779 10.9557C23.5613 11.504 22.9416 11.7696 22.3944 11.5573C13.7459 8.14827 14.2515 6.25813 14.4424 5.54667C14.8381 4.064 16.9512 3.57013 21.2797 3.9488C24.8051 4.25707 29.3555 5.1264 34.0925 6.39467C38.8296 7.664 43.2029 9.18613 46.4093 10.6827C50.3507 12.5205 51.9304 14.0021 51.5325 15.4859C51.1485 16.9173 49.1528 17.0923 48.4968 17.1499C48.4659 17.1531 48.4339 17.1541 48.4029 17.1541C47.8557 17.1541 47.3907 16.7349 47.3416 16.1803C47.2893 15.5936 47.7235 15.0763 48.3112 15.0251C48.7656 14.9856 49.0675 14.9237 49.2627 14.8683C48.8061 14.3915 47.6509 13.648 45.8035 12.7627C45.4163 13.4155 45.2061 14.1653 45.2061 14.9333C45.2061 17.2864 47.1197 19.2 49.4728 19.2C51.8259 19.2 53.7395 17.2864 53.7395 14.9333C53.7395 12.5803 51.8259 10.6667 49.4728 10.6667C48.8829 10.6667 48.4061 10.1899 48.4061 9.6C48.4061 9.01013 48.8829 8.53333 49.4728 8.53333C53.0024 8.53333 55.8728 11.4037 55.8728 14.9333C55.8728 18.4629 53.0024 21.3333 49.4728 21.3333C45.9432 21.3333 43.0728 18.4629 43.0728 14.9333C43.0728 13.8635 43.3544 12.8213 43.8568 11.8912C41.3043 10.8192 37.8803 9.6192 33.5411 8.45547C33.0835 8.3328 32.6429 8.2208 32.2024 8.1088L3.57093 36.6997C2.96613 37.3035 2.63333 38.1077 2.63333 38.9611C2.63333 39.8165 2.96613 40.6197 3.57093 41.2245L23.1816 60.8352C24.3901 62.0437 26.4979 62.0437 27.7064 60.8352L59.3843 29.1125C61.4632 27.0347 62.2728 25.152 62.2728 22.4V5.33333C62.2728 3.56907 60.8371 2.13333 59.0728 2.13333H42.0061C39.2541 2.13333 37.3715 2.94293 35.2936 5.0208C34.8765 5.43787 34.2024 5.43787 33.7853 5.0208C33.3683 4.60373 33.3683 3.9296 33.7853 3.51253C36.2472 1.0496 38.7059 0 42.0061 0H59.0728C62.0136 0 64.4061 2.39253 64.4061 5.33333Z" fill="#2A9D8F"/>
</g>
<defs>
<clipPath id="clip0_177_1072">
<rect width="64" height="64" fill="white" transform="translate(0.5)"/>
</clipPath>
</defs>
</svg>
