<svg viewBox="0 0 312 88" fill="none" xmlns="http://www.w3.org/2000/svg">
<path d="M54.625 64.75C54.4583 66.8333 54.25 68.9583 54 71.125C53.5 73.5417 52.25 75.125 50.25 75.875C50.1667 77.875 49 79.5 46.75 80.75C43.9167 82.3333 42.2083 83.4167 41.625 84C41.125 84.5 39.6667 85 37.25 85.5C35.25 85.9167 33.8333 86.7083 33 87.875C29.4167 87.125 26.4583 87 24.125 87.5C23.2083 86.8333 20.9583 86.125 17.375 85.375C14.4583 84.7917 12.4583 83.6667 11.375 82C9.45833 82.1667 7.75 80.5 6.25 77C2.83333 74.8333 1.125 71.5417 1.125 67.125C1.125 66.375 1.16667 65.625 1.25 64.875C0.75 64.0417 0.5 63.1667 0.5 62.25C0.5 62 0.75 60.7083 1.25 58.375C1.58333 56.7917 1.41667 55.4167 0.75 54.25C0.916667 53.0833 1.58333 51.4583 2.75 49.375C4 47.2917 4.58333 45.5417 4.5 44.125C4.58333 43.5417 5.04167 42.9167 5.875 42.25C6.79167 41.5833 7.25 41.0417 7.25 40.625C7.25 40.2917 7.08333 39.9167 6.75 39.5C4.33333 38 3.08333 36 3 33.5C2.91667 33.0833 2.95833 32.4583 3.125 31.625C3.375 30.7917 3.5 30.25 3.5 30C3.5 29.5 3.25 29.1667 2.75 29C2.25 28.0833 2 27.125 2 26.125C2 25.2083 2.5 23.625 3.5 21.375C4.33333 19.375 4.66667 17.6667 4.5 16.25C4.75 14.8333 5.79167 13.3333 7.625 11.75C9.54167 10.1667 10.625 8.66667 10.875 7.25C11.5417 6.33333 12.9167 5.54167 15 4.875C17.0833 4.20833 18.4167 3.29166 19 2.125C20.0833 1.375 21.7917 0.95833 24.125 0.874997C26.5417 0.791665 28.2083 0.541666 29.125 0.125C29.9583 0.125 31.5 0.458331 33.75 1.12499C36 1.70833 37.7083 1.91666 38.875 1.74999C39.125 2.08333 40.875 3.24999 44.125 5.24999C46.2083 6.58333 47.1667 8.33333 47 10.5C47 10.9167 47.0417 11.6667 47.125 12.75C47.2917 13.8333 47.375 14.6667 47.375 15.25C47.375 17.4167 46.5417 18.9167 44.875 19.75C43.7083 19.75 42.375 20.7083 40.875 22.625C39.375 24.4583 37.9583 25.3333 36.625 25.25C36.2083 25.3333 35.1667 25.2917 33.5 25.125C32.25 25.0417 31.3333 25.25 30.75 25.75C28 26.1667 25.7917 25.9167 24.125 25C24.7083 24.3333 25 23.6667 25 23C25 22.5 24.75 21.7083 24.25 20.625C23.75 19.5417 23.5 18.7083 23.5 18.125C23.5 17.625 23.5833 17.1667 23.75 16.75C23.75 16.4167 23.6667 15.9583 23.5 15.375C24.1667 15.2083 25.0417 15.2917 26.125 15.625C27.5417 16.0417 28.4167 16.25 28.75 16.25C30.3333 16.25 31.9167 16.2083 33.5 16.125C35.0833 16.0417 36.375 15.5 37.375 14.5C37.125 13.0833 36.2917 12.2083 34.875 11.875C33.4583 11.4583 32.0833 11.0833 30.75 10.75C27.8333 11.0833 26.25 11.2917 26 11.375C24.3333 11.7083 22.8333 12.1667 21.5 12.75C21.1667 12.6667 20.875 12.625 20.625 12.625C19.5417 12.625 18.4583 13.4583 17.375 15.125C16.2917 16.7917 15.2083 17.7083 14.125 17.875C14.375 20.125 13.8333 22.375 12.5 24.625C13.4167 26.7917 13.875 28.0833 13.875 28.5C13.875 29.0833 13.75 29.625 13.5 30.125C13.75 30.625 14.375 31.2083 15.375 31.875C16.4583 32.4583 17.1667 33.0833 17.5 33.75C18.75 33.9167 19.9583 33.75 21.125 33.25C22.2917 32.6667 23.4167 32.125 24.5 31.625C25.1667 31.4583 25.9167 31.3333 26.75 31.25C28.25 31.3333 30.5417 31.1667 33.625 30.75C36.2083 31 38.75 31.2917 41.25 31.625C44.25 32.125 46.1667 33.6667 47 36.25C47.0833 36.6667 47.375 37.625 47.875 39.125C48.375 40.5417 48.625 41.6667 48.625 42.5C48.625 43.4167 48.375 44.25 47.875 45C46.7917 46.3333 44.875 48.1667 42.125 50.5C41.7083 50.4167 41.2917 50.375 40.875 50.375C39.875 50.375 38.5833 50.8333 37 51.75C35.5 52.6667 34.2917 53.125 33.375 53.125C32.9583 53.125 32.5 53.0417 32 52.875C31.0833 52.125 29.75 52 28 52.5C26.25 52.9167 24.9167 52.7917 24 52.125C23.25 51.125 21.7917 50.3333 19.625 49.75C17.5417 49.0833 16.0833 48.375 15.25 47.625C14.5 47.875 13.875 48.75 13.375 50.25C12.9583 51.75 12.4167 52.7083 11.75 53.125C12.0833 53.7917 12.25 54.5417 12.25 55.375C12.25 57.375 11.5417 59.2083 10.125 60.875C10.9583 61.625 11.5 63.1667 11.75 65.5C12 67.75 12.75 69.2083 14 69.875C14.4167 70.875 15.4583 71.875 17.125 72.875C18.7917 73.875 19.9167 74.7917 20.5 75.625C21.5833 75.4583 23.4167 76 26 77.25C26.75 77 28 76.875 29.75 76.875C31.9167 76.875 33.4583 76.5417 34.375 75.875C35.2083 75.9583 36.2083 75.5417 37.375 74.625C38.625 73.625 39.625 73.125 40.375 73.125C40.5417 72.625 41.0417 71.7917 41.875 70.625C42.7083 69.4583 43.125 68.5417 43.125 67.875C43.125 67.375 42.9583 66.875 42.625 66.375C40.375 66.7917 39.125 66.25 38.875 64.75C38.7917 64.5833 38.5833 64.5 38.25 64.5C37.6667 64.5 37.375 64.0417 37.375 63.125C37.375 62.625 37.5417 62.125 37.875 61.625C38.2917 61.125 38.5 60.8333 38.5 60.75C38.5 60.5 38.1667 60.125 37.5 59.625C36.8333 59.125 36.5 58.6667 36.5 58.25C36.5 58 36.625 57.7083 36.875 57.375C37.5417 56.5417 38.7083 56.2917 40.375 56.625C42.0417 56.875 43.125 56.875 43.625 56.625C44.125 56.375 44.5417 56.25 44.875 56.25C45.7917 56.25 46.8333 56.8333 48 58C49.1667 59.1667 50.1667 59.8333 51 60C52.1667 61.0833 52.875 61.7917 53.125 62.125C53.875 62.9583 54.375 63.8333 54.625 64.75ZM44.75 9.625C44.5833 8.54166 44.2917 7.99999 43.875 7.99999C43.7083 7.99999 43.5 8.125 43.25 8.375C43.5 9.45833 43.2917 10.4583 42.625 11.375C41.9583 12.2917 41.25 13.125 40.5 13.875C41.3333 14.5417 42.0417 14.6667 42.625 14.25C44.2083 13 44.9167 11.4583 44.75 9.625ZM41 6.625C40 4.70833 38.625 3.75 36.875 3.75C37.2083 5.41666 37.75 7.875 38.5 11.125C39.5 11.625 40.3333 11.2083 41 9.87499C41.6667 8.62499 41.6667 7.54166 41 6.625ZM35 8.62499C35.25 6.95833 34.9167 5.54166 34 4.375C33.1667 3.125 32.0833 2.5 30.75 2.5C30.1667 2.5 29.625 2.625 29.125 2.87499C29.4583 3.875 29.8333 4.95833 30.25 6.125C30.75 7.29166 31.5 8.125 32.5 8.62499C32.75 8.875 33.1667 9 33.75 9C34.25 9 34.6667 8.875 35 8.62499ZM44.375 16.25C44.2917 16.25 44.25 16.2083 44.25 16.125C43.5 16.4583 42.375 16.625 40.875 16.625C39.375 16.625 38.2917 16.75 37.625 17C37.2083 16.9167 36.9583 17.0833 36.875 17.5C36.7917 17.9167 36.875 18.2083 37.125 18.375C39.2083 19.2083 41.0417 19.3333 42.625 18.75C43.7083 17.8333 44.2917 17 44.375 16.25ZM28.125 8.62499C28.2083 7.70833 28.0417 6.875 27.625 6.125C26.7083 3.875 25.1667 2.75 23 2.75C22 2.75 21.1667 3.08333 20.5 3.75C20.8333 5.58333 22.0417 7.125 24.125 8.375C26.2083 8.875 27.5417 8.95833 28.125 8.62499ZM38 22.25C38 21.9167 37.9167 21.5417 37.75 21.125C36.75 20.4583 35.7083 19.8333 34.625 19.25C33.2917 18.4167 32.2083 18 31.375 18C30.625 18 30 18.25 29.5 18.75C29.9167 19.9167 30.9167 21.0833 32.5 22.25C34.8333 23.25 36.6667 23.25 38 22.25ZM21.875 10.25C21.0417 8.41666 19.9583 7.12499 18.625 6.37499C17.9583 6.04166 16.6667 6.29167 14.75 7.125C13.4167 7.95833 12.75 8.625 12.75 9.125C12.75 10.2917 14.7917 10.875 18.875 10.875C19.9583 10.875 20.9583 10.6667 21.875 10.25ZM27 19.5C27.0833 19.0833 27 18.875 26.75 18.875C26.5 18.875 26.3333 18.9583 26.25 19.125C26.0833 19.375 26.1667 19.5833 26.5 19.75C26.9167 19.75 27.0833 19.6667 27 19.5ZM45.375 37C45.0417 36.4167 44.4167 35.6667 43.5 34.75C43.3333 34.75 43 34.625 42.5 34.375C42 34.125 41.625 34 41.375 34C41.0417 34 40.875 34.25 40.875 34.75C41.5417 35.75 41.6667 37.0417 41.25 38.625C42.25 39.2083 43.0417 39.3333 43.625 39C45.2917 38.5833 45.875 37.9167 45.375 37ZM29.5 23.625C29.0833 23.125 28.5417 22.4167 27.875 21.5C26.9583 22.5833 26.5 23.2083 26.5 23.375C26.5 23.5417 26.5833 23.75 26.75 24C27.4167 24.1667 28.3333 24.0417 29.5 23.625ZM38.875 37.125C38.9583 36.875 39 36.625 39 36.375C39 35.875 38.2917 34.8333 36.875 33.25C35.375 32.3333 33.7083 32.2083 31.875 32.875C32.2917 35.0417 33.25 36.7083 34.75 37.875C36.75 38.7083 38.125 38.4583 38.875 37.125ZM45.875 41.375C45.7917 41.2083 45.625 41.125 45.375 41.125C44.875 41.4583 44.3333 41.625 43.75 41.625C43.3333 41.625 42.75 41.5 42 41.25C41.25 41 40.6667 40.875 40.25 40.875C39.75 40.875 39.2917 40.9583 38.875 41.125C38.9583 41.875 39.5 42.625 40.5 43.375C41.75 44.375 42.4583 45 42.625 45.25C43.7917 45.5 44.7083 45.125 45.375 44.125C45.375 43.9583 45.5417 43.5 45.875 42.75C46.125 42.25 46.125 41.7917 45.875 41.375ZM15.875 12.75C14.0417 11.75 12 11.8333 9.75 13C8 14.6667 7.20833 16.125 7.375 17.375C11.625 16.7083 14.4583 15.1667 15.875 12.75ZM41 47.25C38.8333 44.8333 36.8333 43.7917 35 44.125C35.1667 45.2083 36.1667 46.5417 38 48.125C39.6667 48.125 40.6667 47.8333 41 47.25ZM30.25 35.125C29.6667 33.125 28.1667 32.375 25.75 32.875C25.3333 33.0417 24.875 33.25 24.375 33.5C23.9583 33.6667 23.75 34.0833 23.75 34.75C24.6667 35.5833 25.6667 36.5 26.75 37.5C27.8333 38.5 29 38.9167 30.25 38.75C30.9167 38.5833 31.25 38.25 31.25 37.75C31.25 38 30.9167 37.125 30.25 35.125ZM34.625 40.875C33.9583 40.7083 33.125 40.75 32.125 41C30.7917 41.25 29.9583 41.375 29.625 41.375C28.875 41.375 28.2083 41.2083 27.625 40.875C27.2917 40.7917 27.0417 40.9167 26.875 41.25C26.7917 41.5 26.8333 41.75 27 42C29.75 42.4167 32.0417 42.3333 33.875 41.75C33.875 41.6667 34 41.5833 34.25 41.5C34.5833 41.3333 34.7083 41.125 34.625 40.875ZM11.375 19C9.95833 18.9167 9.04167 19 8.625 19.25C5.95833 20.5 4.70833 22.9583 4.875 26.625C6.625 26.2083 7.83333 25.5833 8.5 24.75C10.5833 22.25 11.5417 20.3333 11.375 19ZM47.875 61.125C47.375 59.4583 46.25 58.5417 44.5 58.375C44.3333 58.625 44.25 58.9583 44.25 59.375C44.25 59.7917 44.5 60.5 45 61.5C45.5 62.5 45.7917 63.125 45.875 63.375C46.7083 63.2083 47.375 62.4583 47.875 61.125ZM23.375 38.125C23.125 37.5417 22.5833 36.7083 21.75 35.625C21.3333 35.2083 20.4167 35.2917 19 35.875C20.75 37.7917 22.2083 38.5417 23.375 38.125ZM34.625 49.375C34.125 48.5417 33.625 47.6667 33.125 46.75C32.625 45.75 31.9583 45.0417 31.125 44.625C30.125 44.2917 29.2083 44.375 28.375 44.875C28.625 46.375 28.7917 47.4583 28.875 48.125C30.0417 50.125 31.4167 51 33 50.75C34.1667 50.3333 34.7083 49.875 34.625 49.375ZM52.125 64.75C51.9583 64.0833 51.4583 63.4167 50.625 62.75C49.4583 63.75 47.75 65.4583 45.5 67.875C46.5 68.625 48.1667 68.6667 50.5 68C51.9167 67.6667 52.4583 66.5833 52.125 64.75ZM42.625 61.125C42.125 59.875 41.5833 59.25 41 59.25C40.75 59.25 40.5417 59.3333 40.375 59.5C40.5417 59.8333 40.75 60.7083 41 62.125C41.25 63.125 41.7917 63.7083 42.625 63.875C43.0417 63.7083 43.1667 63.2917 43 62.625C42.75 61.4583 42.625 60.9583 42.625 61.125ZM26 49.625C25.75 49.0417 25.625 48 25.625 46.5C25.625 45 25.4583 44 25.125 43.5C24.7917 43 24.375 42.5 23.875 42C23.4583 41.5 22.9583 41.3333 22.375 41.5C21.4583 42.3333 21.375 44.125 22.125 46.875C22.625 47.5417 23.1667 48.25 23.75 49C24.4167 49.6667 25.1667 49.875 26 49.625ZM11 30C11 28.8333 10.7083 28 10.125 27.5C9.54167 27 8.875 27.3333 8.125 28.5C6.375 31.0833 5.5 32.8333 5.5 33.75C5.5 34.3333 5.58333 34.875 5.75 35.375C5.75 35.375 5.875 35.6667 6.125 36.25C6.375 36.75 6.66667 36.9167 7 36.75C7.83333 35.75 8.70833 34.7083 9.625 33.625C10.5417 32.4583 11 31.25 11 30ZM51 70.375C50.25 70.5417 49.375 70.5833 48.375 70.5C46.7917 70.3333 45.875 70.25 45.625 70.25C43.875 71.0833 43.0833 71.9583 43.25 72.875C44.5833 73.625 46 74 47.5 74C48.75 74 49.7917 73.6667 50.625 73C50.7083 72.8333 50.875 72.5417 51.125 72.125C51.4583 71.7083 51.625 71.4167 51.625 71.25C51.625 70.9167 51.4167 70.625 51 70.375ZM18.75 46.125C18.75 46.125 18.8333 44.9583 19 42.625C19.1667 41.2917 19.0833 40.1667 18.75 39.25C18.1667 38.5 17.7083 38.2083 17.375 38.375C16.2917 39.4583 15.8333 41.25 16 43.75C17.1667 45.5833 18.0833 46.375 18.75 46.125ZM14.375 35.125C14.0417 34.125 13.5 33.5 12.75 33.25C11.3333 34.6667 10.4583 36 10.125 37.25C10.125 39.8333 10.5417 41.4167 11.375 42C12.2917 42.5833 12.875 42.75 13.125 42.5C13.125 41.5833 13.3333 40.3333 13.75 38.75C14.1667 37.1667 14.375 35.9583 14.375 35.125ZM46.25 76.875C43 75.875 40.875 75.375 39.875 75.375C38.875 75.4583 38.5417 75.9167 38.875 76.75C39.625 77.25 40.375 77.7917 41.125 78.375C41.9583 78.9583 42.7083 79.25 43.375 79.25C43.7917 79.25 44.1667 79.2083 44.5 79.125C46.0833 78.4583 46.6667 77.7083 46.25 76.875ZM11.125 45.375C9.875 43.7917 8.70833 43.25 7.625 43.75C6.375 44.1667 5.70833 45.125 5.625 46.625C5.95833 46.7917 6.33333 46.875 6.75 46.875C7.33333 46.875 8.08333 46.6667 9 46.25C10 45.75 10.7083 45.4583 11.125 45.375ZM40.5 81.875C40.6667 81.4583 40.5417 81.0833 40.125 80.75C39.7083 80.3333 39.4583 80 39.375 79.75C37.7083 78.4167 36.2083 77.75 34.875 77.75C34.375 77.75 33.875 77.875 33.375 78.125C33.2083 79.0417 34.125 80.5 36.125 82.5C37.5417 83.3333 39 83.125 40.5 81.875ZM10.5 48.125C8.66667 48.125 7.04167 48.5417 5.625 49.375C5.125 50.0417 4.625 50.6667 4.125 51.25C3.54167 52.0833 3.25 52.7917 3.25 53.375C3.25 53.7083 3.33333 54.0417 3.5 54.375C4.58333 54.0417 5.66667 53.625 6.75 53.125C7.91667 52.625 8.83333 52 9.5 51.25C10.6667 50.25 11 49.2083 10.5 48.125ZM33.5 84.375C33.1667 83.2917 32.4583 81.7083 31.375 79.625C30.2083 78.875 29.25 78.5 28.5 78.5C27.8333 78.5 27.3333 78.75 27 79.25C27.3333 80.6667 28.1667 82.5 29.5 84.75C31.3333 85.3333 32.6667 85.2083 33.5 84.375ZM8.625 55.375C8.04167 55.125 7.375 55.25 6.625 55.75C5.54167 56.5833 5 57 5 57C3.58333 59.4167 2.875 60.8333 2.875 61.25C2.875 61.5833 2.95833 61.9167 3.125 62.25C4.125 61.8333 5.125 61.4167 6.125 61C7.125 60.5 7.875 59.7917 8.375 58.875C8.875 56.9583 8.95833 55.7917 8.625 55.375ZM26 85.125C26.1667 84.7917 26.25 84.4167 26.25 84C26.25 82.3333 25.75 80.8333 24.75 79.5C23.75 78.1667 22.5 77.5417 21 77.625C20.4167 80.2917 20.7917 82.5417 22.125 84.375C23.9583 85.2083 25.25 85.4583 26 85.125ZM9.25 65.625C9.08333 65.125 8.875 64.625 8.625 64.125C8.45833 63.5417 8.125 63.25 7.625 63.25C5.95833 63.6667 4.58333 65.3333 3.5 68.25C3.5 68.25 3.66667 69.0833 4 70.75C4.25 71.75 4.70833 72.375 5.375 72.625C6.29167 71.625 7.20833 70.5833 8.125 69.5C9.04167 68.3333 9.41667 67.0417 9.25 65.625ZM18 83.125C18.25 81.875 18.2083 80.0833 17.875 77.75C17.4583 75.9167 16.5 75 15 75C14.0833 76.5833 13.7917 78.5417 14.125 80.875C15.625 82.4583 16.7083 83.25 17.375 83.25C17.5417 83.25 17.75 83.2083 18 83.125ZM12.25 72.875C11.9167 71.2917 11.2917 70.5833 10.375 70.75C8.875 72.25 8.25 74.4583 8.5 77.375C8.83333 78.875 9.45833 79.6667 10.375 79.75C11.7083 76.4167 12.3333 74.125 12.25 72.875ZM92.7772 79.75C92.1105 80.6667 90.7772 81.3333 88.7772 81.75C86.8605 82.1667 85.5688 82.7083 84.9022 83.375C81.3188 85.2083 79.0272 86.0833 78.0271 86C75.3605 87.0833 73.1522 87.0417 71.4021 85.875C70.8188 86.0417 70.2771 86.125 69.7771 86.125C68.4438 86.125 67.1105 85.4167 65.7772 84C63.8605 82.0833 62.6938 81 62.2771 80.75C61.8605 79.9167 61.9855 78.1667 62.6521 75.5C62.7355 75.25 63.7771 74.5 65.7772 73.25C66.8605 73.3333 68.1105 74.25 69.5272 76C71.0272 77.6667 72.5688 78.3333 74.1521 78C75.2355 77.9167 76.3605 77.7917 77.5272 77.625C78.6938 77.4583 79.4438 76.8333 79.7771 75.75C79.8605 74.9167 79.9021 74.0833 79.9021 73.25C79.9021 69.0833 78.8188 65.5417 76.6522 62.625C76.6522 61.5417 76.5688 60.4167 76.4022 59.25C76.3188 58 75.7355 57.3333 74.6522 57.25C73.4855 59.5 71.2772 62.5 68.0271 66.25C67.8605 67.9167 66.6938 69.375 64.5271 70.625C62.3605 71.875 61.1105 73.1667 60.7771 74.5C60.2771 74.8333 59.5271 75.75 58.5271 77.25C57.6105 78.6667 56.6521 79.4167 55.6521 79.5C55.3188 79.1667 55.2771 78.5833 55.5271 77.75C55.7771 77.5 56.1521 77.1667 56.6521 76.75C56.7355 76.4167 56.5688 76.2083 56.1521 76.125C55.8188 76.0417 55.4438 75.9583 55.0271 75.875C54.9438 75.7083 54.8605 75.5 54.7771 75.25C55.1105 74.9167 56.1521 74.375 57.9021 73.625C59.3188 73.125 60.1521 72.3333 60.4021 71.25C60.1521 70.75 59.6521 70.5 58.9021 70.5C58.5688 70.5 58.1938 70.5 57.7771 70.5C57.2771 70.5833 56.9021 70.625 56.6521 70.625C55.9021 70.625 55.6105 70.125 55.7771 69.125C55.8605 68.125 56.6521 67.0833 58.1521 66C59.7355 64.8333 60.4855 63.625 60.4021 62.375C61.4855 61.875 62.4438 60.9167 63.2771 59.5C64.6105 57.5 65.4021 56.2917 65.6521 55.875C65.7355 55.125 66.2771 54.2083 67.2771 53.125C68.3605 52.0417 68.8605 51.0417 68.7771 50.125C70.1105 48.875 70.7355 47.4583 70.6521 45.875C71.0688 45.375 71.7771 43.9167 72.7772 41.5C73.5272 39.75 74.6522 38.75 76.1521 38.5C78.1522 38.5 79.6522 39 80.6522 40C81.4022 40.5833 81.7771 41.2917 81.7771 42.125C81.7771 42.4583 81.6938 42.9583 81.5272 43.625C81.4438 44.2917 81.4022 44.7917 81.4022 45.125C81.4022 46.0417 81.7772 46.7917 82.5272 47.375C82.6105 51.375 83.3188 55.1667 84.6522 58.75C85.2355 59.5 85.7771 60.75 86.2771 62.5C86.7772 64.25 87.2772 65.4167 87.7771 66C87.4438 68.25 87.9855 70.2917 89.4022 72.125C89.9855 71.625 91.0272 71.0833 92.5272 70.5C92.5272 70.9167 92.3188 71.5417 91.9022 72.375C91.5688 73.2083 91.4022 73.75 91.4022 74C91.4022 74.3333 91.5688 74.5417 91.9022 74.625C91.9022 75.0417 91.8188 75.6667 91.6522 76.5C91.4022 76.3333 91.1105 76.25 90.7772 76.25C89.4438 76.25 88.7355 76.9583 88.6522 78.375C88.7355 79.0417 89.1938 79.25 90.0271 79C90.6938 78.75 91.3605 78.5 92.0272 78.25C92.2772 78.75 92.5272 79.25 92.7772 79.75ZM79.7771 42.25C79.5272 41.5 78.9855 41.0833 78.1522 41C77.4855 41 76.8188 41 76.1521 41C75.7355 41.0833 75.3188 41.2083 74.9022 41.375C74.5688 41.4583 74.4438 41.7083 74.5272 42.125C75.8605 43.2083 77.6105 43.25 79.7771 42.25ZM79.6522 50C80.0688 49.3333 80.2772 48.875 80.2772 48.625C80.2772 48.375 80.1938 48.25 80.0272 48.25C79.6938 48.25 79.2355 48.5833 78.6522 49.25C78.1522 49.9167 77.9855 50.4583 78.1522 50.875C78.7355 50.9583 79.2355 50.6667 79.6522 50ZM78.2772 45.5C75.7772 44.75 73.9855 44.875 72.9022 45.875C72.6522 46.625 72.9021 47.0417 73.6522 47.125C74.4855 47.125 75.2772 47.1667 76.0271 47.25C77.4438 47.0833 78.1938 46.5 78.2772 45.5ZM81.1522 53C81.0688 52.9167 80.6938 52.875 80.0272 52.875C78.3605 54.2917 77.5272 55.2083 77.5272 55.625C77.5272 55.875 77.5688 56.125 77.6522 56.375C78.5688 56.375 79.7355 55.25 81.1522 53ZM76.0271 50.5C76.1938 49.8333 75.9021 49.5 75.1521 49.5C74.5688 49.5 73.9438 49.5 73.2771 49.5C72.6938 49.6667 72.1105 49.875 71.5271 50.125C71.0271 50.2917 70.7355 50.7083 70.6521 51.375C73.2355 51.7917 75.0271 51.5 76.0271 50.5ZM81.4022 58.75C81.6522 58.5833 81.8188 58.375 81.9022 58.125C82.0688 57.7917 82.1105 57.5417 82.0272 57.375C82.0272 57.2083 81.7772 57.2083 81.2772 57.375C81.1938 57.4583 80.6938 57.8333 79.7771 58.5C78.9438 59.1667 78.5272 59.7917 78.5272 60.375C78.5272 60.625 78.6105 60.9167 78.7771 61.25C79.2772 61.1667 79.7772 60.7917 80.2772 60.125C80.8605 59.375 81.2355 58.9167 81.4022 58.75ZM84.2772 61.375C84.0272 61.0417 83.7355 60.875 83.4022 60.875C82.9022 60.875 81.9855 61.625 80.6522 63.125C80.4855 63.625 80.5688 64.25 80.9021 65C82.8188 64.5833 83.9438 63.375 84.2772 61.375ZM84.5271 65.875C82.6105 67.2917 81.6521 68.4583 81.6521 69.375C81.6521 69.625 81.6938 69.9167 81.7771 70.25C81.9438 70.3333 82.6105 70.2083 83.7772 69.875C85.1938 68.875 85.9022 67.9583 85.9022 67.125C85.9022 65.9583 85.4438 65.5417 84.5271 65.875ZM73.5271 54.375C71.6105 53.7917 69.7771 54.0833 68.0271 55.25C67.9438 55.4167 67.9021 55.625 67.9021 55.875C67.9021 56.4583 69.1938 56.625 71.7772 56.375C72.7771 55.875 73.3605 55.2083 73.5271 54.375ZM87.0272 71.625C87.0272 71.875 86.9022 71.7083 86.6522 71.125C84.4022 71.4583 82.8605 72.625 82.0272 74.625C82.3605 75.125 83.3188 75.375 84.9022 75.375C86.6522 74.9583 87.3605 73.7083 87.0272 71.625ZM70.7771 59.375C68.8605 58.625 66.9438 58.7917 65.0271 59.875C65.0271 60.0417 65.0688 60.2083 65.1521 60.375C65.3188 60.4583 66.0688 60.5833 67.4021 60.75C68.3188 60.8333 68.9855 60.7917 69.4021 60.625C70.1521 60.4583 70.6105 60.0417 70.7771 59.375ZM85.9022 77.875H85.2772C85.0272 78.0417 84.7355 78.125 84.4022 78.125C84.0688 78.125 83.5688 78.0417 82.9022 77.875C82.3188 77.7083 81.8605 77.625 81.5272 77.625C80.8605 77.625 80.4022 78 80.1522 78.75C81.2355 79.75 82.6105 80.1667 84.2772 80C85.4438 79 85.9855 78.2917 85.9022 77.875ZM67.6522 64.375C67.8188 64.2083 67.9021 64.0417 67.9021 63.875C67.9021 63.4583 67.4438 63.25 66.5271 63.25C65.6938 63.1667 65.1521 63 64.9021 62.75C64.2355 62.9167 63.4855 63.125 62.6521 63.375C61.9021 63.5417 61.4855 63.9583 61.4021 64.625C63.9021 65.4583 65.9855 65.375 67.6522 64.375ZM81.9022 82.5C81.3188 82.4167 80.3188 81.9583 78.9021 81.125C77.5688 80.2083 76.5271 79.875 75.7772 80.125C75.8605 80.2083 75.9022 80.375 75.9022 80.625C77.3188 82.7917 78.9438 83.7917 80.7771 83.625C80.8605 83.5417 81.1105 83.4167 81.5272 83.25C81.9438 83.0833 82.0688 82.8333 81.9022 82.5ZM64.9021 67.625C64.8188 67.5417 63.1521 67.375 59.9021 67.125C58.8188 67.7917 58.2771 68.2083 58.2771 68.375C58.3605 68.5417 58.4438 68.6667 58.5271 68.75C62.1938 69.1667 64.3188 68.7917 64.9021 67.625ZM75.9022 84.25C75.6522 84.0833 75.1105 83.375 74.2771 82.125C73.4438 80.875 72.8188 80.25 72.4021 80.25C71.9021 80.25 71.5271 80.7917 71.2771 81.875C71.5271 83.375 72.1938 84.375 73.2771 84.875C73.9438 85.0417 74.8188 84.8333 75.9022 84.25ZM67.0271 76C66.3605 75.4167 65.9021 75.1667 65.6521 75.25C65.0688 75.4167 64.4438 76.5417 63.7771 78.625C63.9438 79.0417 64.3605 79.375 65.0271 79.625C65.4438 79.125 65.9021 78.5833 66.4021 78C66.9855 77.4167 67.1938 76.75 67.0271 76ZM69.7771 79.875C70.0271 79.0417 69.7355 78.625 68.9021 78.625C68.1521 78.625 67.7355 78.9583 67.6522 79.625C66.5688 81.2083 66.6105 82.5 67.7771 83.5C68.4438 84 69.0271 83.9583 69.5272 83.375C69.3605 82.9583 69.3605 82.375 69.5272 81.625C69.6938 80.7083 69.7771 80.125 69.7771 79.875ZM128.107 70.875C127.524 70.875 126.94 70.875 126.357 70.875C125.69 70.9583 125.19 71.25 124.857 71.75C124.69 72.4167 124.982 72.7917 125.732 72.875C126.565 72.9583 126.982 73.1667 126.982 73.5C126.982 73.75 126.899 74.0833 126.732 74.5C125.399 74.75 124.107 74.9583 122.857 75.125C121.274 75.4583 120.315 76.2083 119.982 77.375C120.315 78.0417 120.94 78.3333 121.857 78.25C122.607 78.0833 123.357 77.9167 124.107 77.75C124.524 77.4167 124.899 77.0833 125.232 76.75C125.649 76.3333 126.149 76.2083 126.732 76.375C126.982 76.875 127.107 77.3333 127.107 77.75C127.107 78.5 126.524 79.25 125.357 80C123.857 80.9167 122.982 81.5417 122.732 81.875C121.982 82.9583 120.565 83.6667 118.482 84C116.482 84.25 115.107 84.7917 114.357 85.625C113.774 85.7083 113.107 85.75 112.357 85.75C109.774 85.75 106.565 84.9583 102.732 83.375C102.315 82.5417 101.107 81.2917 99.107 79.625C97.357 78.2083 96.4404 76.8333 96.357 75.5C96.2737 75.4167 95.482 75.8333 93.982 76.75C92.482 77.5833 91.482 78 90.982 78C90.732 78 90.607 77.875 90.607 77.625C90.607 77.2917 91.107 76.7917 92.107 76.125C93.107 75.375 93.607 74.875 93.607 74.625C93.607 74.2917 93.1904 74.0833 92.357 74C91.607 73.9167 91.232 73.7917 91.232 73.625C91.232 73.375 91.857 72.875 93.107 72.125C94.4404 71.2917 95.107 70.4583 95.107 69.625C95.107 69.4583 94.9404 69.375 94.607 69.375C94.357 69.375 93.8154 69.5 92.982 69.75C92.1487 69.9167 91.5654 70 91.232 70C90.982 70 90.857 69.9167 90.857 69.75C90.857 68.9167 91.357 68 92.357 67C93.4404 65.9167 94.0237 65.25 94.107 65C94.1904 63.5833 94.2737 62.125 94.357 60.625C94.4404 59.0417 95.0654 57.8333 96.232 57C95.982 55.1667 96.6904 53.2917 98.357 51.375C100.607 48.875 101.899 47.2917 102.232 46.625C103.149 46.4583 104.607 45.625 106.607 44.125C108.774 41.4583 112.899 40.125 118.982 40.125C120.149 40.125 121.149 40.5417 121.982 41.375C122.899 42.125 123.815 42.9583 124.732 43.875C125.732 44.7083 126.315 45.625 126.482 46.625C126.482 46.9583 126.315 48.6667 125.982 51.75C125.732 53.9167 125.149 55.5417 124.232 56.625C122.899 57.0417 122.024 58.0833 121.607 59.75C120.774 62.3333 120.357 63.6667 120.357 63.75C119.69 63.75 119.19 63.1667 118.857 62C118.524 60.75 117.774 60.125 116.607 60.125C116.274 60.125 115.774 60.1667 115.107 60.25C114.524 60.3333 114.065 60.375 113.732 60.375C112.815 60.375 112.19 60 111.857 59.25C112.857 57.9167 114.149 55.7917 115.732 52.875C117.232 51.375 117.982 50.5 117.982 50.25C117.982 50 117.857 49.7083 117.607 49.375C116.94 49.0417 116.274 48.875 115.607 48.875C114.94 48.875 114.274 49.0417 113.607 49.375C113.274 50.375 112.19 51.2083 110.357 51.875C108.524 52.5417 107.482 53.4583 107.232 54.625C104.232 55.5417 102.732 58.8333 102.732 64.5C102.732 67.25 103.565 70.4167 105.232 74C105.982 75.5833 107.274 76.5417 109.107 76.875C110.94 77.125 112.732 77.3333 114.482 77.5C115.649 77.3333 116.94 76.7083 118.357 75.625C120.274 74.125 121.44 73.2083 121.857 72.875C122.44 71.2917 123.607 70.0417 125.357 69.125C125.94 69.2083 126.565 69.3333 127.232 69.5C127.982 69.5833 128.274 70.0417 128.107 70.875ZM121.107 44C121.107 43.5833 120.19 43.0417 118.357 42.375C117.607 42.625 117.232 43 117.232 43.5C117.232 43.8333 117.399 44.4167 117.732 45.25C118.149 46.0833 118.315 46.7083 118.232 47.125C120.149 47.0417 121.107 46 121.107 44ZM124.732 47.125C124.482 46.0417 124.107 45.6667 123.607 46C123.44 46.25 122.857 46.8333 121.857 47.75C120.857 48.5833 120.357 49.2917 120.357 49.875C120.357 50.0417 120.44 50.25 120.607 50.5C121.19 50.5 122.024 50.4583 123.107 50.375C124.69 49.875 125.232 48.7917 124.732 47.125ZM114.857 46.875C115.024 45.875 114.732 44.9583 113.982 44.125C113.315 43.2083 112.399 42.875 111.232 43.125C110.149 43.625 109.649 44.25 109.732 45C109.815 45 110.524 45.4167 111.857 46.25C112.69 46.8333 113.399 47.125 113.982 47.125C114.315 47.125 114.607 47.0417 114.857 46.875ZM123.732 52.875C119.815 53.125 118.149 53.25 118.732 53.25C117.482 54 116.857 54.5833 116.857 55C116.857 55.25 116.94 55.4583 117.107 55.625C118.357 55.7083 119.607 55.7917 120.857 55.875C122.274 55.7917 123.232 55.125 123.732 53.875C123.899 53.375 123.899 53.0417 123.732 52.875ZM119.482 58C118.232 57.1667 116.899 57.125 115.482 57.875C115.732 57.7917 116.44 57.9167 117.607 58.25C118.524 58.5 119.149 58.4167 119.482 58ZM110.857 48.75C110.69 48.6667 109.815 48.25 108.232 47.5C107.232 47 106.315 46.75 105.482 46.75C104.982 47.0833 104.482 47.4583 103.982 47.875C103.482 48.2917 103.315 48.7917 103.482 49.375C104.649 50.2083 106.107 50.75 107.857 51C108.524 50.75 109.19 50.5 109.857 50.25C110.607 49.9167 110.94 49.4167 110.857 48.75ZM105.482 53.5C103.649 52.6667 102.315 52.25 101.482 52.25C100.565 52.25 99.8154 52.5833 99.232 53.25C99.0654 53.5833 98.8987 53.9583 98.732 54.375C98.5654 54.875 98.6904 55.25 99.107 55.5C99.5237 55.6667 100.024 55.75 100.607 55.75C102.607 55.75 104.232 55 105.482 53.5ZM102.107 58.75C100.94 58.5833 99.357 58.75 97.357 59.25C96.4404 60 96.1904 61.2083 96.607 62.875C98.7737 63.0417 100.607 62 102.107 59.75C102.524 59.3333 102.524 59 102.107 58.75ZM120.607 80.25C120.19 80.25 119.524 80 118.607 79.5C117.774 78.9167 117.024 78.7083 116.357 78.875C116.024 78.875 115.857 79.25 115.857 80C116.524 80.6667 117.024 81.125 117.357 81.375C118.024 81.875 118.69 82.125 119.357 82.125C119.774 82.0417 120.107 81.8333 120.357 81.5C120.69 81.0833 120.774 80.6667 120.607 80.25ZM114.232 83.25C113.649 82.25 113.065 81.25 112.482 80.25C111.899 79.1667 111.024 78.75 109.857 79C109.69 80.9167 110.315 82.4583 111.732 83.625C113.232 83.875 114.065 83.75 114.232 83.25ZM100.107 67.5C100.524 66.8333 100.732 66.3333 100.732 66C100.732 65.3333 100.065 65.25 98.732 65.75C97.482 66.1667 96.6904 66.6667 96.357 67.25C96.1904 69 96.3154 70 96.732 70.25C97.3987 70.0833 98.5237 69.1667 100.107 67.5ZM102.232 72.375C101.899 71.125 101.524 70.5833 101.107 70.75C99.0237 72 98.107 73.5 98.357 75.25C98.5237 76.25 98.982 76.7917 99.732 76.875C100.315 76.2917 100.94 75.625 101.607 74.875C102.357 74.0417 102.565 73.2083 102.232 72.375ZM107.107 80.875C106.357 78.125 105.232 76.6667 103.732 76.5C102.982 77.9167 102.649 79.0417 102.732 79.875C103.565 81.5417 104.732 82.2917 106.232 82.125C106.649 81.9583 106.94 81.5417 107.107 80.875ZM169.722 77.25C167.889 78.1667 166.889 78.5833 166.722 78.5C165.889 79.8333 165.014 81.125 164.097 82.375C163.097 83.875 161.889 84.6667 160.472 84.75C158.139 84.8333 156.514 84.0417 155.597 82.375C155.597 81.875 154.764 80.9583 153.097 79.625C152.597 79.4583 152.097 79.5833 151.597 80C151.18 80.3333 150.764 80.6667 150.347 81C147.18 83.25 144.93 84.375 143.597 84.375C143.18 84.375 142.764 84.3333 142.347 84.25C141.68 83.4167 140.055 83 137.472 83C135.222 82.9167 133.93 82.0833 133.597 80.5C133.43 80.1667 133.097 78.8333 132.597 76.5C132.347 74.9167 131.514 74.1667 130.097 74.25C130.097 74.3333 129.597 75.125 128.597 76.625C128.014 77.5417 127.055 78 125.722 78C125.722 77.5833 126.139 76.9583 126.972 76.125C127.805 75.2917 128.222 74.75 128.222 74.5C128.222 74.1667 127.972 74 127.472 74C127.055 73.9167 126.639 73.875 126.222 73.875C126.055 73.2917 126.472 72.7917 127.472 72.375C128.472 71.875 128.847 71.25 128.597 70.5C128.514 70.1667 128.055 70.0417 127.222 70.125C126.389 70.2083 125.972 70 125.972 69.5C125.889 69.25 126.014 69 126.347 68.75C126.764 68.5 126.972 68.3333 126.972 68.25C127.972 68.25 128.889 67.7083 129.722 66.625C130.555 65.9583 130.764 64.9167 130.347 63.5C129.93 62 130.055 60.9167 130.722 60.25C131.889 59.6667 132.514 58.625 132.597 57.125C132.68 56.125 132.764 55.125 132.847 54.125C132.93 53.125 133.472 52.375 134.472 51.875C135.722 51.625 136.847 50.5833 137.847 48.75C138.847 46.9167 139.93 45.8333 141.097 45.5C142.597 45.8333 144.014 45.0833 145.347 43.25C146.764 41.3333 148.18 40.4167 149.597 40.5C152.264 40.0833 154.347 41.1667 155.847 43.75C156.43 45.1667 156.472 46.25 155.972 47C155.222 48.25 153.722 49 151.472 49.25C149.222 49.5 147.764 50.2917 147.097 51.625C145.68 51.7083 144.514 52.7083 143.597 54.625C142.514 56.875 141.514 58.25 140.597 58.75C140.847 59.8333 140.514 61.1667 139.597 62.75C138.68 64.25 138.222 65.4167 138.222 66.25C138.222 66.75 138.305 67.25 138.472 67.75C138.305 68.0833 138.222 68.4583 138.222 68.875C138.222 69.625 138.555 70.5833 139.222 71.75C139.972 72.9167 140.43 73.7917 140.597 74.375C142.014 74.875 143.055 75 143.722 74.75C143.805 74.6667 144.555 73.5833 145.972 71.5C146.889 70.1667 147.222 68.9167 146.972 67.75C148.055 66.9167 148.722 65.2917 148.972 62.875C149.222 60.4583 149.722 58.8333 150.472 58C150.639 55.75 150.722 54.5833 150.722 54.5C150.972 53.25 151.43 52.2083 152.097 51.375C153.597 50.125 155.222 49.9583 156.972 50.875C158.555 51.7083 159.43 53.25 159.597 55.5C159.764 56.5833 159.43 58 158.597 59.75C157.764 61.4167 157.347 62.6667 157.347 63.5C157.347 64 157.43 64.5 157.597 65C157.597 65.5833 157.347 66.375 156.847 67.375C156.347 68.375 156.055 69.125 155.972 69.625C156.639 69.9583 157.389 70.7917 158.222 72.125C159.055 73.375 159.805 74.125 160.472 74.375C161.389 74.2083 162.347 73.2917 163.347 71.625C164.347 69.875 165.222 69 165.972 69C166.555 69 166.847 69.1667 166.847 69.5C166.847 69.75 166.722 70.1667 166.472 70.75C166.222 71.25 166.097 71.6667 166.097 72C166.097 72.5 166.43 72.9167 167.097 73.25C168.347 72.6667 169.139 72.9583 169.472 74.125C169.555 74.7917 169.639 75.8333 169.722 77.25ZM153.597 44.75C152.514 43.5 151.097 43 149.347 43.25C147.93 43.75 147.18 44.4583 147.097 45.375C148.93 46.9583 150.764 47.4167 152.597 46.75C153.347 46.5 153.68 45.8333 153.597 44.75ZM156.472 53.25C156.222 52.9167 155.514 52.75 154.347 52.75C153.18 52.9167 152.889 53.9167 153.472 55.75C154.639 55.4167 155.555 55.125 156.222 54.875C156.805 54.125 156.889 53.5833 156.472 53.25ZM146.972 48.375C146.472 47.875 145.68 47.625 144.597 47.625C143.014 47.7083 142.139 47.7083 141.972 47.625C141.972 47.7083 141.68 47.9167 141.097 48.25C140.597 48.5833 140.43 48.9167 140.597 49.25C143.68 50 145.805 49.7083 146.972 48.375ZM157.222 57.5C157.305 57.4167 157.264 57.2917 157.097 57.125C156.014 57.4583 154.472 58.125 152.472 59.125C151.722 60.2083 151.514 61.125 151.847 61.875C154.847 61.4583 156.639 60 157.222 57.5ZM168.347 75.375C168.264 74.7083 167.764 74.4167 166.847 74.5C165.68 74.6667 164.972 74.7083 164.722 74.625C163.889 74.875 163.347 75.0833 163.097 75.25C162.514 75.5833 162.18 76.0833 162.097 76.75C162.347 77 162.805 77.2917 163.472 77.625C165.722 77.2917 167.347 76.5417 168.347 75.375ZM155.222 64C153.555 64.4167 152.43 64.8333 151.847 65.25C150.597 65.9167 149.889 66.8333 149.722 68C149.389 68.25 149.222 68.5 149.222 68.75C149.222 69.1667 149.43 69.4583 149.847 69.625C150.264 69.7917 150.68 69.75 151.097 69.5C152.514 69 153.764 67.7917 154.847 65.875C155.097 64.4583 155.222 63.8333 155.222 64ZM141.722 52.875C139.139 52.5417 137.472 52.5833 136.722 53C135.972 53.3333 135.43 53.8333 135.097 54.5C134.847 55.1667 134.847 55.8333 135.097 56.5C138.43 56.4167 140.639 55.5417 141.722 53.875V52.875ZM155.222 72.75C154.305 74.25 153.722 75.875 153.472 77.625C153.805 78.0417 154.555 78.2083 155.722 78.125C156.889 76.875 157.472 76 157.472 75.5C157.472 73.8333 156.722 72.9167 155.222 72.75ZM161.722 80.625C161.305 80.0417 160.847 79.5 160.347 79C159.93 78.4167 159.43 78.125 158.847 78.125C158.43 78.4583 158.139 79.2083 157.972 80.375C157.972 81.2083 158.555 81.8333 159.722 82.25C160.889 81.8333 161.555 81.2917 161.722 80.625ZM152.347 72.75C152.347 72.25 151.972 72 151.222 72C150.472 72 149.764 72 149.097 72C148.264 71.9167 147.514 72.5417 146.847 73.875C147.18 74.7083 147.68 75.125 148.347 75.125C149.18 75.375 150.055 75.2083 150.972 74.625C151.889 74.0417 152.347 73.4167 152.347 72.75ZM138.472 58.5C135.389 58.75 133.43 59.6667 132.597 61.25C132.347 61.6667 132.305 62.0833 132.472 62.5C132.639 62.9167 132.889 63.1667 133.222 63.25C134.972 62.8333 136.055 62.5 136.472 62.25C137.639 61.75 138.305 60.9583 138.472 59.875C138.805 59.375 138.805 58.9167 138.472 58.5ZM149.722 77.875C149.222 77.9583 148.514 77.8333 147.597 77.5C146.18 76.9167 145.389 76.625 145.222 76.625C144.805 76.625 144.555 76.875 144.472 77.375C144.972 77.9583 145.514 78.5833 146.097 79.25C146.68 79.9167 147.347 80.125 148.097 79.875C149.43 79.375 149.972 78.7083 149.722 77.875ZM136.972 65.75C135.389 65.1667 134.055 65.5 132.972 66.75C132.805 66.9167 132.472 68.125 131.972 70.375C131.805 70.7083 131.847 71.0417 132.097 71.375C132.43 71.7083 132.764 71.75 133.097 71.5C133.264 71.1667 134.055 70.25 135.472 68.75C136.472 67.6667 136.972 66.6667 136.972 65.75ZM145.347 81.875C144.597 81.5417 143.764 80.5833 142.847 79C142.014 77.6667 141.139 76.9167 140.222 76.75C139.555 78 139.639 79.5417 140.472 81.375C141.055 81.7083 141.639 82.0833 142.222 82.5C142.805 82.8333 143.43 82.875 144.097 82.625C144.347 82.7917 144.597 82.7917 144.847 82.625C145.18 82.375 145.347 82.125 145.347 81.875ZM137.722 72.75C137.472 72.25 137.139 72 136.722 72C135.889 72 135.305 72.4167 134.972 73.25C134.389 74.1667 134.097 75.1667 134.097 76.25C134.097 77.5833 134.555 78.7917 135.472 79.875C136.305 80.4583 136.722 80.75 136.722 80.75C136.889 80.75 137.055 80.6667 137.222 80.5C136.972 79.4167 136.972 78.0833 137.222 76.5C137.555 74.5833 137.722 73.3333 137.722 72.75ZM194.273 16.125C194.189 16.625 194.148 17.125 194.148 17.625C194.148 18.2083 194.231 19.1667 194.398 20.5C194.648 21.8333 194.731 22.8333 194.648 23.5C194.564 24.5833 194.189 25.5 193.523 26.25C194.023 29.8333 193.481 32.25 191.898 33.5C191.981 33.8333 192.023 34.2083 192.023 34.625C192.023 35.625 191.481 36.9583 190.398 38.625C189.314 40.2917 188.814 41.7083 188.898 42.875C187.731 43.7083 186.689 45.5417 185.773 48.375C184.939 51.2083 183.814 53.0417 182.398 53.875C182.231 56.2083 180.439 58.2083 177.023 59.875C176.773 62.0417 177.231 66.0417 178.398 71.875C180.231 74.125 182.439 75.3333 185.023 75.5C186.106 75 187.273 73.7917 188.523 71.875C189.856 69.9583 191.231 68.75 192.648 68.25C192.981 68.5833 193.148 68.9167 193.148 69.25C193.148 69.5833 192.939 70 192.523 70.5C192.106 71 191.898 71.375 191.898 71.625C191.898 71.875 192.064 72.0833 192.398 72.25C192.314 72.6667 192.314 73.0833 192.398 73.5C190.314 74.0833 188.856 74.9583 188.023 76.125C188.189 76.5417 188.606 76.75 189.273 76.75C189.439 76.75 190.148 76.625 191.398 76.375C192.231 76.2917 192.731 76.375 192.898 76.625C193.148 77.0417 193.023 77.8333 192.523 79C192.106 80.1667 191.106 81.1667 189.523 82C187.939 82.8333 186.939 83.625 186.523 84.375C186.023 84.5417 185.481 84.625 184.898 84.625C184.231 84.625 183.189 84.4167 181.773 84C180.439 83.5833 179.356 83.4583 178.523 83.625C177.023 83.125 175.689 81.7917 174.523 79.625C173.356 77.375 172.189 75.9167 171.023 75.25C170.939 74.6667 170.814 74.0833 170.648 73.5C170.481 72.9167 170.148 72.5 169.648 72.25C168.981 72.4167 168.231 73.4167 167.398 75.25C166.981 74.9167 166.773 74.25 166.773 73.25C166.856 71.75 166.898 70.9583 166.898 70.875C167.648 70.5417 168.064 69.7917 168.148 68.625C167.898 68.375 167.648 68.25 167.398 68.25C167.064 68.25 166.564 68.4167 165.898 68.75C165.314 69.0833 164.898 69.25 164.648 69.25C164.314 69.25 164.064 68.875 163.898 68.125C163.981 67.125 164.814 65.9167 166.398 64.5C168.064 63.0833 168.898 61.8333 168.898 60.75C168.898 60.5 168.606 59.2083 168.023 56.875C167.606 55.0417 167.606 53.625 168.023 52.625C167.523 51.7083 167.273 50.625 167.273 49.375C167.273 47.7917 167.731 45.875 168.648 43.625C168.398 43.0417 168.273 42.4167 168.273 41.75C168.273 41.0833 168.523 39.7083 169.023 37.625C169.439 35.9583 169.523 34.5417 169.273 33.375C169.856 32.5417 170.231 30.9583 170.398 28.625C170.648 26.2917 171.189 24.6667 172.023 23.75C171.939 23.3333 171.898 22.9167 171.898 22.5C171.898 21.6667 172.356 20.4583 173.273 18.875C174.189 17.2917 174.564 16 174.398 15C175.648 13.25 176.856 11.5 178.023 9.74999C179.523 7.75 181.231 6.5 183.148 6C183.898 5.83333 184.814 6 185.898 6.5C187.064 6.91667 187.898 7.125 188.398 7.125C188.648 7.125 188.939 7.08333 189.273 6.99999C191.023 7.58333 192.106 8.95833 192.523 11.125C193.023 13.7917 193.606 15.4583 194.273 16.125ZM190.523 10.375C189.689 9.54166 189.106 9.16666 188.773 9.24999C188.439 9.24999 188.189 9.41666 188.023 9.74999C187.856 10.0833 187.814 10.4167 187.898 10.75C187.898 11.4167 187.939 12.125 188.023 12.875C188.106 13.625 188.481 13.9583 189.148 13.875C190.231 12.375 190.689 11.2083 190.523 10.375ZM185.898 10C186.064 8.66666 185.398 7.99999 183.898 7.99999C182.731 7.99999 182.148 8.5 182.148 9.5C182.148 10.0833 182.523 10.5833 183.273 11C184.273 11.6667 184.856 12.0833 185.023 12.25C185.439 12.25 185.731 11.5 185.898 10ZM192.398 16.25C192.231 15.9167 192.023 15.75 191.773 15.75C191.439 15.75 190.981 16.0417 190.398 16.625C189.898 17.2083 189.606 17.5417 189.523 17.625C189.523 17.625 189.439 17.9167 189.273 18.5C189.106 19.0833 189.064 19.5 189.148 19.75C189.231 20 189.523 20.0417 190.023 19.875C191.606 19.2083 192.398 18 192.398 16.25ZM192.648 22.875C193.064 21.875 192.981 21.2917 192.398 21.125C191.481 21.7083 190.564 22.25 189.648 22.75C188.648 23.5 188.314 24.4167 188.648 25.5C190.064 25.5833 191.398 24.7083 192.648 22.875ZM182.023 13.625C181.773 12.5417 180.939 12 179.523 12C178.273 12.9167 177.564 14.1667 177.398 15.75C178.314 15.5833 179.231 15.4583 180.148 15.375C181.148 15.2083 181.773 14.625 182.023 13.625ZM191.898 28.25C191.731 27.9167 191.523 27.75 191.273 27.75C191.106 27.75 190.814 27.875 190.398 28.125C189.981 28.2917 189.689 28.375 189.523 28.375C188.106 29.2083 187.398 30.0417 187.398 30.875C187.398 31.2083 187.481 31.5417 187.648 31.875C188.648 31.9583 189.814 31.4167 191.148 30.25C191.814 29.4167 192.064 28.75 191.898 28.25ZM179.523 18.875C178.356 18.875 176.814 19.2083 174.898 19.875C173.981 20.875 173.648 21.7083 173.898 22.375C174.898 22.125 175.939 21.9167 177.023 21.75C178.106 21.5 178.898 20.9583 179.398 20.125C179.481 20.0417 179.523 19.625 179.523 18.875ZM190.023 34.875C189.773 34.5417 189.439 34.375 189.023 34.375C188.189 34.375 187.481 34.7917 186.898 35.625C186.898 35.7917 186.689 36.1667 186.273 36.75C185.939 37.25 185.773 37.5833 185.773 37.75C185.773 38.0833 186.106 38.25 186.773 38.25C188.023 37.5 188.689 37.0833 188.773 37C189.523 36.4167 189.939 35.7083 190.023 34.875ZM187.148 16.125C187.064 15.2083 186.439 14.8333 185.273 15C183.356 15.5 182.106 16.875 181.523 19.125C181.273 21.0417 180.981 22.9583 180.648 24.875C179.481 25.7917 178.856 27.4583 178.773 29.875C178.689 32.2083 178.064 33.7917 176.898 34.625C177.231 35.2917 177.398 36.0833 177.398 37C177.398 37.3333 177.273 38.5 177.023 40.5C176.773 41.8333 176.814 42.9167 177.148 43.75C177.148 44.1667 176.981 44.875 176.648 45.875C176.314 46.7917 176.148 47.4167 176.148 47.75C176.148 48.25 176.273 48.6667 176.523 49C177.773 48.4167 178.773 47 179.523 44.75C180.273 42.4167 181.231 40.875 182.398 40.125C182.648 37.9583 183.398 36.0417 184.648 34.375C184.481 31.7083 185.106 28.125 186.523 23.625C186.773 22.9583 186.814 21.75 186.648 20C186.481 18.25 186.648 16.9583 187.148 16.125ZM178.273 25.375C178.439 24.7917 178.314 24.5 177.898 24.5C177.648 24.5 177.148 24.6667 176.398 25C175.648 25.25 175.148 25.3333 174.898 25.25C173.148 26.0833 172.314 27.25 172.398 28.75C172.398 28.75 173.481 28.3333 175.648 27.5C176.898 27 177.773 26.2917 178.273 25.375ZM175.273 33.125C176.439 32.125 177.023 31.375 177.023 30.875C177.023 30.5417 176.773 30.375 176.273 30.375C175.439 30.375 174.439 30.6667 173.273 31.25C172.189 31.8333 171.564 32.4583 171.398 33.125C171.398 33.2083 171.314 33.625 171.148 34.375C170.981 34.875 171.148 35.2083 171.648 35.375C172.481 35.0417 173.689 34.2917 175.273 33.125ZM187.023 41.5C185.606 41.3333 183.981 42 182.148 43.5C181.898 43.75 181.814 44.125 181.898 44.625C181.981 45.125 182.273 45.2917 182.773 45.125C184.439 45.0417 185.773 44.2083 186.773 42.625C186.939 42.4583 187.023 42.0833 187.023 41.5ZM175.273 37.25C174.939 37 174.648 36.875 174.398 36.875C173.814 36.875 173.189 37.25 172.523 38C171.439 39.0833 170.898 39.625 170.898 39.625C170.481 40.625 170.481 41.1667 170.898 41.25C173.731 40.4167 175.189 39.0833 175.273 37.25ZM184.148 48.375C184.148 48.0417 183.814 47.875 183.148 47.875C182.064 47.875 181.273 48.0833 180.773 48.5C180.356 48.9167 179.939 49.2917 179.523 49.625C179.189 49.9583 179.064 50.375 179.148 50.875C180.814 50.875 182.064 50.5833 182.898 50C183.731 49.4167 184.148 48.875 184.148 48.375ZM174.523 44.625C174.439 44.2083 174.231 44 173.898 44C173.648 44 173.189 44.25 172.523 44.75C171.856 45.1667 171.398 45.4167 171.148 45.5C169.898 46.8333 169.564 48.1667 170.148 49.5C171.898 49 173.356 47.375 174.523 44.625ZM179.648 54.875C179.731 54.5417 179.606 54.2917 179.273 54.125C179.023 54.0417 178.648 54.0417 178.148 54.125C177.731 54.2083 177.356 54.2917 177.023 54.375C176.939 54.875 177.064 55.5417 177.398 56.375C177.814 56.5417 178.189 56.4167 178.523 56C178.939 55.5833 179.314 55.2083 179.648 54.875ZM173.773 50.875C171.856 52.2083 170.564 53.4167 169.898 54.5C169.481 56 169.564 56.875 170.148 57.125C170.231 56.9583 171.064 56.0833 172.648 54.5C173.564 53.5 174.023 52.625 174.023 51.875C174.023 51.5417 173.939 51.2083 173.773 50.875ZM174.648 57.125C172.398 58.4583 171.189 60.4583 171.023 63.125C172.606 62.4583 173.814 60.8333 174.648 58.25C174.898 57.8333 174.898 57.4583 174.648 57.125ZM189.773 79.5C189.689 79.3333 189.648 79.125 189.648 78.875C189.481 78.875 189.106 78.7917 188.523 78.625C187.939 78.375 187.564 78.25 187.398 78.25C186.981 78.25 186.856 78.5833 187.023 79.25C187.356 80.75 188.273 80.8333 189.773 79.5ZM174.898 65.875C174.898 65.7917 174.898 65.5417 174.898 65.125C174.981 64.7083 174.981 64.4167 174.898 64.25C174.814 64 174.606 63.9167 174.273 64C171.773 66.25 170.689 68.375 171.023 70.375C172.023 69.875 173.314 68.375 174.898 65.875ZM185.773 81.75C185.439 80.8333 185.064 79.875 184.648 78.875C184.314 77.7917 183.606 77.2917 182.523 77.375C181.689 79.5417 181.898 81.25 183.148 82.5C184.398 83.1667 185.273 82.9167 185.773 81.75ZM176.023 70.375C175.523 70.125 175.064 70.2917 174.648 70.875C174.231 71.375 173.856 71.875 173.523 72.375C172.939 73.875 172.939 74.7917 173.523 75.125C174.189 75.2917 174.981 74.375 175.898 72.375C175.981 72.0417 176.023 71.375 176.023 70.375ZM179.648 81.5C179.231 80.25 179.064 78.7917 179.148 77.125C179.064 76.625 178.939 76.125 178.773 75.625C178.689 75.0417 178.314 74.875 177.648 75.125C177.648 75.125 177.314 75.6667 176.648 76.75C176.148 77.4167 175.898 78 175.898 78.5C175.898 79.1667 176.189 79.875 176.773 80.625C177.439 81.2917 178.189 81.625 179.023 81.625C179.273 81.625 179.481 81.5833 179.648 81.5ZM235.063 77.25C233.23 78.1667 232.23 78.5833 232.063 78.5C231.23 79.8333 230.355 81.125 229.438 82.375C228.438 83.875 227.23 84.6667 225.813 84.75C223.48 84.8333 221.855 84.0417 220.938 82.375C220.938 81.875 220.105 80.9583 218.438 79.625C217.938 79.4583 217.438 79.5833 216.938 80C216.522 80.3333 216.105 80.6667 215.688 81C212.522 83.25 210.272 84.375 208.938 84.375C208.522 84.375 208.105 84.3333 207.688 84.25C207.022 83.4167 205.397 83 202.813 83C200.563 82.9167 199.272 82.0833 198.938 80.5C198.772 80.1667 198.438 78.8333 197.938 76.5C197.688 74.9167 196.855 74.1667 195.438 74.25C195.438 74.3333 194.938 75.125 193.938 76.625C193.355 77.5417 192.397 78 191.063 78C191.063 77.5833 191.48 76.9583 192.313 76.125C193.147 75.2917 193.563 74.75 193.563 74.5C193.563 74.1667 193.313 74 192.813 74C192.397 73.9167 191.98 73.875 191.563 73.875C191.397 73.2917 191.813 72.7917 192.813 72.375C193.813 71.875 194.188 71.25 193.938 70.5C193.855 70.1667 193.397 70.0417 192.563 70.125C191.73 70.2083 191.313 70 191.313 69.5C191.23 69.25 191.355 69 191.688 68.75C192.105 68.5 192.313 68.3333 192.313 68.25C193.313 68.25 194.23 67.7083 195.063 66.625C195.897 65.9583 196.105 64.9167 195.688 63.5C195.272 62 195.397 60.9167 196.063 60.25C197.23 59.6667 197.855 58.625 197.938 57.125C198.022 56.125 198.105 55.125 198.188 54.125C198.272 53.125 198.813 52.375 199.813 51.875C201.063 51.625 202.188 50.5833 203.188 48.75C204.188 46.9167 205.272 45.8333 206.438 45.5C207.938 45.8333 209.355 45.0833 210.688 43.25C212.105 41.3333 213.522 40.4167 214.938 40.5C217.605 40.0833 219.688 41.1667 221.188 43.75C221.772 45.1667 221.813 46.25 221.313 47C220.563 48.25 219.063 49 216.813 49.25C214.563 49.5 213.105 50.2917 212.438 51.625C211.022 51.7083 209.855 52.7083 208.938 54.625C207.855 56.875 206.855 58.25 205.938 58.75C206.188 59.8333 205.855 61.1667 204.938 62.75C204.022 64.25 203.563 65.4167 203.563 66.25C203.563 66.75 203.647 67.25 203.813 67.75C203.647 68.0833 203.563 68.4583 203.563 68.875C203.563 69.625 203.897 70.5833 204.563 71.75C205.313 72.9167 205.772 73.7917 205.938 74.375C207.355 74.875 208.397 75 209.063 74.75C209.147 74.6667 209.897 73.5833 211.313 71.5C212.23 70.1667 212.563 68.9167 212.313 67.75C213.397 66.9167 214.063 65.2917 214.313 62.875C214.563 60.4583 215.063 58.8333 215.813 58C215.98 55.75 216.063 54.5833 216.063 54.5C216.313 53.25 216.772 52.2083 217.438 51.375C218.938 50.125 220.563 49.9583 222.313 50.875C223.897 51.7083 224.772 53.25 224.938 55.5C225.105 56.5833 224.772 58 223.938 59.75C223.105 61.4167 222.688 62.6667 222.688 63.5C222.688 64 222.772 64.5 222.938 65C222.938 65.5833 222.688 66.375 222.188 67.375C221.688 68.375 221.397 69.125 221.313 69.625C221.98 69.9583 222.73 70.7917 223.563 72.125C224.397 73.375 225.147 74.125 225.813 74.375C226.73 74.2083 227.688 73.2917 228.688 71.625C229.688 69.875 230.563 69 231.313 69C231.897 69 232.188 69.1667 232.188 69.5C232.188 69.75 232.063 70.1667 231.813 70.75C231.563 71.25 231.438 71.6667 231.438 72C231.438 72.5 231.772 72.9167 232.438 73.25C233.688 72.6667 234.48 72.9583 234.813 74.125C234.897 74.7917 234.98 75.8333 235.063 77.25ZM218.938 44.75C217.855 43.5 216.438 43 214.688 43.25C213.272 43.75 212.522 44.4583 212.438 45.375C214.272 46.9583 216.105 47.4167 217.938 46.75C218.688 46.5 219.022 45.8333 218.938 44.75ZM221.813 53.25C221.563 52.9167 220.855 52.75 219.688 52.75C218.522 52.9167 218.23 53.9167 218.813 55.75C219.98 55.4167 220.897 55.125 221.563 54.875C222.147 54.125 222.23 53.5833 221.813 53.25ZM212.313 48.375C211.813 47.875 211.022 47.625 209.938 47.625C208.355 47.7083 207.48 47.7083 207.313 47.625C207.313 47.7083 207.022 47.9167 206.438 48.25C205.938 48.5833 205.772 48.9167 205.938 49.25C209.022 50 211.147 49.7083 212.313 48.375ZM222.563 57.5C222.647 57.4167 222.605 57.2917 222.438 57.125C221.355 57.4583 219.813 58.125 217.813 59.125C217.063 60.2083 216.855 61.125 217.188 61.875C220.188 61.4583 221.98 60 222.563 57.5ZM233.688 75.375C233.605 74.7083 233.105 74.4167 232.188 74.5C231.022 74.6667 230.313 74.7083 230.063 74.625C229.23 74.875 228.688 75.0833 228.438 75.25C227.855 75.5833 227.522 76.0833 227.438 76.75C227.688 77 228.147 77.2917 228.813 77.625C231.063 77.2917 232.688 76.5417 233.688 75.375ZM220.563 64C218.897 64.4167 217.772 64.8333 217.188 65.25C215.938 65.9167 215.23 66.8333 215.063 68C214.73 68.25 214.563 68.5 214.563 68.75C214.563 69.1667 214.772 69.4583 215.188 69.625C215.605 69.7917 216.022 69.75 216.438 69.5C217.855 69 219.105 67.7917 220.188 65.875C220.438 64.4583 220.563 63.8333 220.563 64ZM207.063 52.875C204.48 52.5417 202.813 52.5833 202.063 53C201.313 53.3333 200.772 53.8333 200.438 54.5C200.188 55.1667 200.188 55.8333 200.438 56.5C203.772 56.4167 205.98 55.5417 207.063 53.875V52.875ZM220.563 72.75C219.647 74.25 219.063 75.875 218.813 77.625C219.147 78.0417 219.897 78.2083 221.063 78.125C222.23 76.875 222.813 76 222.813 75.5C222.813 73.8333 222.063 72.9167 220.563 72.75ZM227.063 80.625C226.647 80.0417 226.188 79.5 225.688 79C225.272 78.4167 224.772 78.125 224.188 78.125C223.772 78.4583 223.48 79.2083 223.313 80.375C223.313 81.2083 223.897 81.8333 225.063 82.25C226.23 81.8333 226.897 81.2917 227.063 80.625ZM217.688 72.75C217.688 72.25 217.313 72 216.563 72C215.813 72 215.105 72 214.438 72C213.605 71.9167 212.855 72.5417 212.188 73.875C212.522 74.7083 213.022 75.125 213.688 75.125C214.522 75.375 215.397 75.2083 216.313 74.625C217.23 74.0417 217.688 73.4167 217.688 72.75ZM203.813 58.5C200.73 58.75 198.772 59.6667 197.938 61.25C197.688 61.6667 197.647 62.0833 197.813 62.5C197.98 62.9167 198.23 63.1667 198.563 63.25C200.313 62.8333 201.397 62.5 201.813 62.25C202.98 61.75 203.647 60.9583 203.813 59.875C204.147 59.375 204.147 58.9167 203.813 58.5ZM215.063 77.875C214.563 77.9583 213.855 77.8333 212.938 77.5C211.522 76.9167 210.73 76.625 210.563 76.625C210.147 76.625 209.897 76.875 209.813 77.375C210.313 77.9583 210.855 78.5833 211.438 79.25C212.022 79.9167 212.688 80.125 213.438 79.875C214.772 79.375 215.313 78.7083 215.063 77.875ZM202.313 65.75C200.73 65.1667 199.397 65.5 198.313 66.75C198.147 66.9167 197.813 68.125 197.313 70.375C197.147 70.7083 197.188 71.0417 197.438 71.375C197.772 71.7083 198.105 71.75 198.438 71.5C198.605 71.1667 199.397 70.25 200.813 68.75C201.813 67.6667 202.313 66.6667 202.313 65.75ZM210.688 81.875C209.938 81.5417 209.105 80.5833 208.188 79C207.355 77.6667 206.48 76.9167 205.563 76.75C204.897 78 204.98 79.5417 205.813 81.375C206.397 81.7083 206.98 82.0833 207.563 82.5C208.147 82.8333 208.772 82.875 209.438 82.625C209.688 82.7917 209.938 82.7917 210.188 82.625C210.522 82.375 210.688 82.125 210.688 81.875ZM203.063 72.75C202.813 72.25 202.48 72 202.063 72C201.23 72 200.647 72.4167 200.313 73.25C199.73 74.1667 199.438 75.1667 199.438 76.25C199.438 77.5833 199.897 78.7917 200.813 79.875C201.647 80.4583 202.063 80.75 202.063 80.75C202.23 80.75 202.397 80.6667 202.563 80.5C202.313 79.4167 202.313 78.0833 202.563 76.5C202.897 74.5833 203.063 73.3333 203.063 72.75ZM282.364 75.5C281.197 77.0833 279.447 78.5417 277.114 79.875C276.947 79.875 275.906 80.25 273.989 81C272.656 81.5833 271.572 81.875 270.739 81.875C269.739 81.875 268.822 81.5417 267.989 80.875C266.239 80.125 264.697 78.5417 263.364 76.125C261.614 72.7083 260.531 70.7917 260.114 70.375C259.447 71.5417 258.197 73.0417 256.364 74.875C256.114 75.7083 255.697 76.875 255.114 78.375C253.864 79.5417 252.572 80.75 251.239 82C249.906 83.1667 248.531 83.75 247.114 83.75C246.697 83.75 246.239 83.7083 245.739 83.625C242.739 84.2917 240.614 83.8333 239.364 82.25C239.031 82.0833 238.489 81.4167 237.739 80.25C237.156 79.4167 236.447 79.0417 235.614 79.125C235.531 79.0417 235.281 78.5833 234.864 77.75C234.531 77.1667 234.197 76.875 233.864 76.875C233.614 76.875 233.406 76.9583 233.239 77.125C232.239 78.0417 231.489 78.4167 230.989 78.25C230.739 78 230.614 77.75 230.614 77.5C230.614 77.3333 230.947 76.7917 231.614 75.875C232.031 75.2917 231.781 74.8333 230.864 74.5C230.364 74.3333 230.281 73.75 230.614 72.75C231.364 72.5 232.156 71.875 232.989 70.875C231.906 70.2083 230.989 70.0417 230.239 70.375C229.822 70.875 229.489 71.0417 229.239 70.875C229.239 70.375 229.239 69.8333 229.239 69.25C229.239 68.8333 229.572 68.4583 230.239 68.125C231.489 67.0417 232.322 64.9167 232.739 61.75C232.489 61.0833 232.364 60.4167 232.364 59.75C232.364 58.75 232.822 57.4167 233.739 55.75C234.656 54 235.114 52.625 235.114 51.625C236.281 51.0417 237.447 49.7083 238.614 47.625C239.781 45.5417 240.989 44.25 242.239 43.75C243.572 41.5833 245.947 40.2083 249.364 39.625C250.031 39.5417 250.864 39.7083 251.864 40.125C252.947 40.4583 253.739 40.5417 254.239 40.375C253.656 39.2917 253.322 37.6667 253.239 35.5C253.156 33.3333 252.864 31.75 252.364 30.75C252.864 30 253.114 29.2083 253.114 28.375C253.114 27.9583 252.822 26.6667 252.239 24.5C251.739 22.9167 251.739 21.5417 252.239 20.375C252.989 19.7083 253.364 18.8333 253.364 17.75C253.364 17.25 253.281 16.5417 253.114 15.625C252.947 14.625 252.864 13.9167 252.864 13.5C252.864 12.3333 253.281 11.4167 254.114 10.75C255.031 8.75 255.947 6.79166 256.864 4.875C257.947 2.54166 259.614 1.41666 261.864 1.5C262.447 1.24999 263.031 1.12499 263.614 1.12499C265.281 1.12499 267.531 2.41666 270.364 5C270.947 5.91666 271.531 7.24999 272.114 9C272.697 11 273.197 12.375 273.614 13.125C273.697 15.7083 273.739 19.7083 273.739 25.125C273.572 25.5417 273.447 26 273.364 26.5C273.364 28.0833 273.364 29.6667 273.364 31.25C273.364 33.25 272.989 34.7917 272.239 35.875C272.739 39.7083 271.656 42.875 268.989 45.375C269.156 45.875 269.239 46.375 269.239 46.875C269.239 48.0417 268.656 49.5417 267.489 51.375C266.322 53.2083 265.781 54.75 265.864 56C265.697 56.5833 265.614 57.125 265.614 57.625C265.614 58.4583 265.947 59.7083 266.614 61.375C267.364 63.0417 267.739 64.3333 267.739 65.25C268.489 65.8333 269.156 67.0417 269.739 68.875C270.322 70.7083 271.156 71.8333 272.239 72.25C274.739 69.25 276.697 67.875 278.114 68.125C278.447 68.375 278.656 69.0417 278.739 70.125C276.989 70.2083 275.739 71.1667 274.989 73C275.656 73.1667 276.531 73.0833 277.614 72.75C278.781 72.3333 279.572 72.125 279.989 72.125C280.906 72.875 281.697 74 282.364 75.5ZM266.489 6.125C265.572 3.95833 264.656 2.87499 263.739 2.87499C263.489 2.87499 263.364 3.16666 263.364 3.75C263.697 4.08333 263.906 4.54166 263.989 5.12499C263.989 6.20833 263.989 7.33333 263.989 8.5C264.072 9.74999 264.572 10.625 265.489 11.125C266.322 9.125 266.656 7.45833 266.489 6.125ZM270.239 11.75C270.572 9.41667 270.114 7.875 268.864 7.125C268.864 9.45833 268.364 11.6667 267.364 13.75C267.197 13.9167 267.156 14.1667 267.239 14.5C267.239 14.8333 267.406 14.9583 267.739 14.875C269.072 14.2917 269.906 13.25 270.239 11.75ZM261.489 7.49999C261.406 7.33333 261.406 6.91666 261.489 6.25C261.572 5.58333 261.572 5.16666 261.489 5C261.406 4.58333 261.114 4.41666 260.614 4.5C258.864 5.74999 257.947 7.04166 257.864 8.375C257.864 8.70833 258.072 8.91666 258.489 9C258.822 8.91666 259.156 8.875 259.489 8.875C260.739 8.70833 261.406 8.24999 261.489 7.49999ZM271.239 18C271.406 17.3333 271.572 16.6667 271.739 16C271.906 15.1667 271.656 14.7083 270.989 14.625C268.656 17.9583 267.614 20.3333 267.864 21.75C268.864 21.5833 269.989 20.3333 271.239 18ZM260.614 13C260.781 11.4167 260.531 10.6667 259.864 10.75C258.364 11 257.281 11.5417 256.614 12.375C255.947 13.125 255.656 14.3333 255.739 16C257.656 15.5833 259.281 14.5833 260.614 13ZM270.989 23.5C268.072 25.1667 266.572 27.5 266.489 30.5C267.489 30.5833 268.406 30.0833 269.239 29C269.822 28 270.406 27 270.989 26C270.906 25.75 270.947 25.4167 271.114 25C271.364 24.5833 271.489 24.2917 271.489 24.125C271.489 23.875 271.322 23.6667 270.989 23.5ZM259.239 18.125C257.406 18.4583 255.864 19.75 254.614 22C254.364 23.5 254.489 24.25 254.989 24.25C255.572 24.25 256.322 23.75 257.239 22.75C258.239 21.75 258.906 20.75 259.239 19.75C259.406 19.3333 259.406 18.7917 259.239 18.125ZM265.364 25.125C265.114 24.2917 265.072 22.875 265.239 20.875C265.406 19.125 265.239 17.75 264.739 16.75C264.656 15.8333 264.281 14.5 263.614 12.75C263.197 12.6667 262.864 12.875 262.614 13.375C262.281 14.125 262.072 14.5417 261.989 14.625C262.072 15.0417 262.114 15.4583 262.114 15.875C262.114 16.5417 261.906 17.5833 261.489 19C261.156 20.4167 260.989 21.4583 260.989 22.125C260.989 23.125 261.239 24 261.739 24.75C261.322 25.5833 261.114 26.4583 261.114 27.375C261.114 28.0417 261.281 29.0417 261.614 30.375C261.947 31.7083 262.114 32.75 262.114 33.5C262.114 34.3333 261.989 35.0833 261.739 35.75C262.406 36.5 262.739 37.5417 262.739 38.875C262.656 41.125 262.614 42.25 262.614 42.25C263.364 41.6667 263.656 40.7917 263.489 39.625C263.322 38.0417 263.322 37 263.489 36.5C264.156 35.5833 264.489 34.2917 264.489 32.625C264.489 32.2083 264.489 31.5833 264.489 30.75C264.406 29.9167 264.364 29.2917 264.364 28.875C264.364 27.2917 264.697 26.0417 265.364 25.125ZM271.114 31C269.947 32 268.822 32.9583 267.739 33.875C266.489 35.125 265.906 36.4583 265.989 37.875C267.072 37.7917 268.614 36.4167 270.614 33.75C270.947 33.1667 271.114 32.25 271.114 31ZM258.864 27.75C259.281 27.5 259.447 27.0833 259.364 26.5C259.281 25.9167 259.072 25.5 258.739 25.25C257.822 25.75 256.656 26.75 255.239 28.25C255.072 29.6667 255.072 30.5 255.239 30.75C256.656 30.25 257.864 29.25 258.864 27.75ZM269.614 39.125C266.864 40.125 265.114 42 264.364 44.75C266.197 44.75 267.947 43.2917 269.614 40.375C270.114 39.9583 270.114 39.5417 269.614 39.125ZM259.614 32.875C259.614 32.7917 259.447 32.5833 259.114 32.25C256.947 33.3333 255.864 34.6667 255.864 36.25C255.864 36.6667 256.114 37.0417 256.614 37.375C258.614 36.375 259.614 34.875 259.614 32.875ZM259.864 37.875C257.447 39.7917 256.406 41.7083 256.739 43.625C256.906 43.875 257.239 44 257.739 44C259.322 42.1667 260.114 40.625 260.114 39.375C260.114 38.875 260.031 38.375 259.864 37.875ZM266.489 48.25C266.489 48 266.364 47.8333 266.114 47.75C265.947 47.6667 265.697 47.7083 265.364 47.875C265.114 47.9583 264.947 48.0833 264.864 48.25C264.864 49.4167 265.031 50.0417 265.364 50.125C265.697 49.9583 265.906 49.6667 265.989 49.25C266.156 48.75 266.322 48.4167 266.489 48.25ZM260.989 45.5C259.322 46.4167 258.197 47.4167 257.614 48.5C256.781 50.0833 256.864 51.2083 257.864 51.875C259.364 50.875 260.406 48.75 260.989 45.5ZM251.989 43.625C251.322 42.875 250.364 42.5 249.114 42.5C248.197 42.5 247.489 42.75 246.989 43.25C247.572 44.0833 248.697 45.0417 250.364 46.125C251.531 44.875 252.072 44.0417 251.989 43.625ZM262.614 52.125C262.447 52.0417 262.322 51.8333 262.239 51.5C259.656 53.8333 258.531 55.6667 258.864 57C258.947 57.0833 258.989 57.25 258.989 57.5C258.906 58.1667 259.114 58.9167 259.614 59.75C261.697 56.1667 262.697 53.625 262.614 52.125ZM264.489 64.875C264.572 63.875 264.614 62.9167 264.614 62C264.531 60.8333 263.989 60.0833 262.989 59.75C261.739 61.5833 261.114 62.9167 261.114 63.75C261.114 64.3333 261.572 65.9167 262.489 68.5C263.489 67.5833 264.156 66.375 264.489 64.875ZM277.989 75.375C276.656 75.0417 274.989 75.1667 272.989 75.75C273.072 76.75 273.322 77.4583 273.739 77.875C274.156 78.2083 274.572 78.375 274.989 78.375C275.739 78.375 276.531 77.9583 277.364 77.125C277.614 76.7083 277.822 76.125 277.989 75.375ZM247.364 47.25C246.947 46.5833 245.864 46.1667 244.114 46C242.531 46.4167 241.572 47.2083 241.239 48.375C241.739 48.875 243.031 49.125 245.114 49.125C245.864 48.875 246.406 48.6667 246.739 48.5C247.156 48.25 247.364 47.8333 247.364 47.25ZM267.114 68.375C266.364 68.2083 265.614 68.9583 264.864 70.625C264.197 71.7083 264.447 73.1667 265.614 75C266.364 75 266.822 74.375 266.989 73.125C266.989 72.875 267.072 72.0833 267.239 70.75C267.322 69.8333 267.281 69.0417 267.114 68.375ZM271.489 80C271.822 79.9167 271.989 79.7917 271.989 79.625C271.989 79.4583 271.781 79.2083 271.364 78.875C271.031 78.4583 270.781 78.1667 270.614 78C270.531 77.75 270.447 76.875 270.364 75.375C270.281 74.2083 269.864 73.5833 269.114 73.5C268.531 76.4167 268.281 78.125 268.364 78.625C269.281 79.7917 270.322 80.25 271.489 80ZM258.239 66.5C258.489 66 258.072 65.6667 256.989 65.5C255.656 66 254.989 66.5 254.989 67C254.989 67.25 255.031 67.4583 255.114 67.625C256.947 67.625 257.989 67.25 258.239 66.5ZM256.239 55.375C255.072 52.875 254.614 50.3333 254.864 47.75C252.281 47.5833 249.906 48.625 247.739 50.875C245.906 52.875 244.531 55.3333 243.614 58.25C242.197 59 241.531 60.375 241.614 62.375C241.781 64.9583 241.739 66.5 241.489 67C242.072 67.5 242.614 68.9583 243.114 71.375C243.447 73.125 244.489 74 246.239 74C248.406 72.5 249.781 71.4583 250.364 70.875C251.697 69.4583 252.447 67.9583 252.614 66.375C254.447 65.625 255.531 64.0417 255.864 61.625C256.031 59.5417 256.156 57.4583 256.239 55.375ZM243.614 52.125C243.781 51.625 243.697 51.375 243.364 51.375C242.864 51.375 242.281 51.25 241.614 51C239.614 51.0833 238.197 51.5833 237.364 52.5C237.031 53.5 237.156 54.0833 237.739 54.25C239.572 54.75 241.531 54.0417 243.614 52.125ZM256.989 71C256.656 70.6667 256.031 70.5 255.114 70.5C253.781 70.5 253.072 70.5 252.989 70.5C251.572 71.1667 250.947 71.9167 251.114 72.75C251.781 72.8333 252.781 73 254.114 73.25C255.281 73.25 256.239 72.5 256.989 71ZM240.614 58.125C241.281 57.375 241.364 56.875 240.864 56.625C240.531 56.5417 239.739 56.625 238.489 56.875C237.322 57.0417 236.656 57.125 236.489 57.125C235.406 57.4583 234.947 58.5833 235.114 60.5C237.031 60 237.989 59.75 237.989 59.75C239.072 59.4167 239.947 58.875 240.614 58.125ZM253.614 76.875C253.614 76.2083 253.114 75.8333 252.114 75.75C251.114 75.6667 250.156 75.5833 249.239 75.5C248.989 76 249.489 76.9167 250.739 78.25C251.322 78.6667 251.947 78.6667 252.614 78.25C253.281 77.8333 253.614 77.375 253.614 76.875ZM238.989 64.875C238.989 64.7917 239.072 64.4583 239.239 63.875C239.489 63.2917 239.614 62.875 239.614 62.625C239.614 62.125 239.156 61.9583 238.239 62.125C238.072 62.2083 237.031 63 235.114 64.5C235.114 64.8333 234.947 65.3333 234.614 66C234.364 66.6667 234.239 67.125 234.239 67.375C234.239 67.7917 234.364 68.125 234.614 68.375C235.614 67.625 237.072 66.4583 238.989 64.875ZM249.489 80.375C248.989 80.125 248.322 79.4583 247.489 78.375C246.739 77.2917 245.947 76.6667 245.114 76.5C244.864 78.1667 244.947 79.375 245.364 80.125C245.864 81.4583 246.697 82.0833 247.864 82C248.197 81.75 248.531 81.5417 248.864 81.375C249.281 81.125 249.489 80.7917 249.489 80.375ZM240.114 71.125C240.697 69.2083 240.322 68.25 238.989 68.25C236.989 69.1667 235.906 70.875 235.739 73.375C235.822 73.4583 235.989 74 236.239 75C236.322 75.6667 236.656 75.9167 237.239 75.75C237.406 75.0833 237.864 74.2917 238.614 73.375C239.364 72.375 239.864 71.625 240.114 71.125ZM242.739 81.75C242.572 80.75 242.531 79.2083 242.614 77.125C242.531 76.5417 242.406 75.9583 242.239 75.375C242.072 74.7083 241.739 74.4167 241.239 74.5C240.072 75.4167 239.614 76.6667 239.864 78.25C240.197 79.25 240.531 79.9583 240.864 80.375C241.364 81.125 241.989 81.5833 242.739 81.75ZM311.424 70.25C311.258 70.3333 310.716 70.8333 309.799 71.75C309.883 71.9167 310.133 72.2083 310.549 72.625C310.966 73.0417 311.174 73.375 311.174 73.625C311.174 73.875 311.091 74.0833 310.924 74.25C307.674 74 305.383 74.625 304.049 76.125C304.299 76.7083 305.216 77.125 306.799 77.375C306.966 77.4583 307.591 77.4167 308.674 77.25C309.341 77.1667 309.799 77.3333 310.049 77.75C309.216 80.6667 307.383 82.3333 304.549 82.75C303.716 82.75 302.591 83.1667 301.174 84C299.841 84.8333 298.758 85.25 297.924 85.25C297.424 85.25 296.924 85.1667 296.424 85C295.758 85.1667 295.049 85.25 294.299 85.25C291.549 85.25 289.341 84.0833 287.674 81.75C285.091 80.8333 283.508 78.625 282.924 75.125C282.591 75.0417 281.549 75.5 279.799 76.5C278.133 77.5 277.091 78 276.674 78C276.424 78 276.299 77.875 276.299 77.625C276.299 77.375 276.799 76.875 277.799 76.125C278.799 75.375 279.299 74.875 279.299 74.625C279.299 74.2917 278.883 74.0833 278.049 74C277.299 73.9167 276.924 73.75 276.924 73.5C276.924 73.3333 277.549 72.8333 278.799 72C280.133 71.1667 280.799 70.4583 280.799 69.875C280.799 69.5417 280.549 69.375 280.049 69.375C279.716 69.375 278.966 69.5 277.799 69.75C276.966 70 276.549 70.0417 276.549 69.875C276.549 68.7917 276.966 68 277.799 67.5C278.966 66.9167 279.674 66.375 279.924 65.875C279.591 65.125 279.424 64.4167 279.424 63.75C279.424 62.9167 279.674 61.7917 280.174 60.375C280.674 58.9583 280.924 57.875 280.924 57.125C280.924 56.625 280.883 56.1667 280.799 55.75C281.633 54.0833 282.674 51.4583 283.924 47.875C284.424 47.4583 285.841 45.7917 288.174 42.875C289.841 40.875 291.466 39.5833 293.049 39C293.549 39.1667 294.133 39.25 294.799 39.25C295.299 39.25 296.508 39.125 298.424 38.875C299.841 38.7083 300.966 38.7083 301.799 38.875C302.883 39.125 303.758 39.7917 304.424 40.875C304.591 41.4583 305.258 42.125 306.424 42.875C307.591 43.625 308.216 44.4167 308.299 45.25C308.466 45.6667 308.549 46.125 308.549 46.625C308.549 47.0417 308.466 47.7083 308.299 48.625C308.133 49.5417 308.049 50.25 308.049 50.75C308.049 51.4167 308.174 52.0417 308.424 52.625C308.424 53.7917 307.716 55.25 306.299 57C304.883 58.6667 304.174 60.0417 304.174 61.125C303.008 61.625 301.466 63.0417 299.549 65.375C297.883 67.2917 296.174 68.3333 294.424 68.5C294.258 69.25 293.549 69.9583 292.299 70.625C291.049 71.2083 290.424 71.7917 290.424 72.375C290.424 73.125 291.133 74.0833 292.549 75.25C293.966 76.4167 295.383 77 296.799 77C297.299 77 297.758 76.9167 298.174 76.75C299.841 76.6667 301.966 75.4167 304.549 73C305.466 72.0833 306.383 71.0833 307.299 70C308.299 68.9167 309.466 68.4167 310.799 68.5C311.299 69.5833 311.508 70.1667 311.424 70.25ZM302.924 44.125C303.258 43.375 303.133 42.5833 302.549 41.75C301.049 40.75 299.924 40.375 299.174 40.625C299.341 41.875 299.924 43.5833 300.924 45.75C301.341 45.75 301.716 45.5 302.049 45C302.466 44.5 302.758 44.2083 302.924 44.125ZM306.424 46.5C306.008 46 305.633 45.75 305.299 45.75C304.549 45.75 303.883 46.375 303.299 47.625C302.716 48.7917 302.424 49.7083 302.424 50.375C302.424 50.7083 302.633 50.9583 303.049 51.125C303.466 51.2083 303.841 51.125 304.174 50.875C306.091 49.5417 306.841 48.0833 306.424 46.5ZM296.924 43.5C295.924 41.6667 295.049 40.7917 294.299 40.875C294.299 40.875 293.758 41.25 292.674 42C292.008 42.4167 291.633 42.9167 291.549 43.5C291.883 43.5833 292.633 44 293.799 44.75C294.716 45.3333 295.549 45.5417 296.299 45.375C296.466 45.2917 296.674 44.6667 296.924 43.5ZM306.424 53.25C306.508 53.0833 306.424 52.875 306.174 52.625C305.008 53.0417 303.841 53.4583 302.674 53.875C301.258 54.4583 300.383 55.2917 300.049 56.375C300.549 56.7917 301.674 56.8333 303.424 56.5C305.008 56.25 306.008 55.1667 306.424 53.25ZM291.549 47.75C290.299 46 288.883 45.75 287.299 47C286.466 48.4167 286.091 49.375 286.174 49.875C289.174 50.125 290.966 49.4167 291.549 47.75ZM300.049 49.75C300.383 48 299.674 47.125 297.924 47.125C296.591 47.125 295.258 47.5 293.924 48.25C293.758 48.6667 293.049 49.5833 291.799 51C290.799 52 290.383 53.0417 290.549 54.125C289.633 54.9583 289.216 56.3333 289.299 58.25C289.383 60.6667 289.341 62.125 289.174 62.625C290.591 62.375 292.008 61.3333 293.424 59.5C294.841 57.5833 296.216 56.5417 297.549 56.375C298.133 55.375 298.716 54.3333 299.299 53.25C299.966 52.0833 300.216 50.9167 300.049 49.75ZM302.674 59.75C302.508 59.6667 301.633 59.4583 300.049 59.125C298.966 58.875 298.049 58.8333 297.299 59C296.133 59.75 295.591 60.3333 295.674 60.75C296.091 61 296.716 61.4167 297.549 62C299.799 62.25 301.508 61.6667 302.674 60.25V59.75ZM288.174 54.5C288.424 54 288.466 53.5 288.299 53C288.049 52.5833 287.674 52.375 287.174 52.375C285.424 52.375 284.258 53.125 283.674 54.625C283.674 54.625 283.591 55.0417 283.424 55.875C283.258 56.375 283.341 56.7917 283.674 57.125C285.841 56.875 287.341 56 288.174 54.5ZM297.924 64.25C296.758 64 295.091 63.625 292.924 63.125C291.341 63.875 290.633 64.5417 290.799 65.125C292.299 66.125 293.966 66.5417 295.799 66.375C296.549 66.0417 297.258 65.3333 297.924 64.25ZM305.924 79.625C305.341 79.4583 304.549 79.125 303.549 78.625C302.966 78.4583 302.341 78.2917 301.674 78.125C300.841 78.0417 300.424 78.3333 300.424 79C301.508 80.5833 302.799 81.3333 304.299 81.25C304.799 81.0833 305.341 80.5417 305.924 79.625ZM286.674 61.125C286.924 60.375 287.049 59.7917 287.049 59.375C287.049 58.7917 286.799 58.5 286.299 58.5C285.716 58.5 284.924 58.9583 283.924 59.875C282.924 60.7083 282.299 61.4167 282.049 62C281.716 63.6667 281.799 64.8333 282.299 65.5C283.383 64.6667 284.841 63.2083 286.674 61.125ZM291.674 68.375L291.049 67.75C290.799 67.5833 290.549 67.5 290.299 67.5C289.549 67.5 289.424 68.0833 289.924 69.25C290.591 69.4167 291.174 69.125 291.674 68.375ZM299.049 82.75C298.716 80.8333 297.758 79.5 296.174 78.75C295.841 79.25 295.758 79.875 295.924 80.625C296.091 81.125 296.299 81.6667 296.549 82.25C297.216 82.9167 298.049 83.0833 299.049 82.75ZM286.674 68.875C286.758 68.2917 286.841 67.7083 286.924 67.125C286.924 66.2917 286.758 65.875 286.424 65.875C286.174 65.875 285.883 66 285.549 66.25C283.549 67.0833 282.841 69.0417 283.424 72.125C284.591 71.7917 285.674 70.7083 286.674 68.875ZM293.174 82.125C293.508 80.2917 293.008 78.4583 291.674 76.625C291.591 76.2917 291.299 76.1667 290.799 76.25C290.383 76.4167 290.216 76.6667 290.299 77C289.716 79.3333 290.133 81 291.549 82C291.966 82.5833 292.508 82.625 293.174 82.125ZM288.674 73C288.674 72.3333 288.508 72 288.174 72C287.924 72 287.216 72.5417 286.049 73.625C285.299 75.0417 285.299 76.4583 286.049 77.875C286.216 77.875 286.383 78.0833 286.549 78.5C286.716 78.8333 286.966 78.9167 287.299 78.75C287.716 77.5 288.174 75.5833 288.674 73Z" fill="#E76F51"/>
</svg>
