<svg width="65" height="64" viewBox="0 0 65 64" fill="none" xmlns="http://www.w3.org/2000/svg">
<circle cx="32.5" cy="32" r="30.5" fill="white" stroke="#E9D8A6" stroke-width="3"/>
<path fill-rule="evenodd" clip-rule="evenodd" d="M44.1364 16C46.5464 16 48.5 18.6863 48.5 22V42C48.5 45.3138 46.5464 48 44.1364 48H20.8636C18.4537 48 16.5 45.3138 16.5 42V22C16.5 18.6863 18.4537 16 20.8636 16H44.1364ZM43.0497 20H21.9504L31.5988 30.4734C32.1272 31.0472 32.8728 31.0472 33.4014 30.4734L43.0497 20ZM19.4091 22.3376V42C19.4091 43.1046 20.0603 44 20.8636 44H44.1364C44.9397 44 45.5909 43.1046 45.5909 42V22.3376L35.2039 33.613C33.6185 35.334 31.3815 35.334 29.7961 33.613L19.4091 22.3376Z" fill="#E9D8A6"/>
</svg>
